<svg width="60" height="60" viewBox="0 0 60 60" fill="none" xmlns="http://www.w3.org/2000/svg">
<g id="chat">
<path id="Path" fill-rule="evenodd" clip-rule="evenodd" d="M54.5455 10.909H46.3637V5.45458C46.3637 2.44623 43.9161 0 40.9091 0H5.45459C2.44764 0 0 2.44623 0 5.45458V47.7273C0 48.2787 0.332898 48.7766 0.841577 48.987C1.00943 49.0576 1.1879 49.0908 1.36368 49.0908C1.71793 49.0908 2.06681 48.9524 2.32786 48.6913L12.8374 38.1818H13.6364V43.6364C13.6364 46.6446 16.0841 49.091 19.091 49.091H47.1627L57.6723 59.6005C57.9333 59.8615 58.2822 60 58.6364 60C58.8122 60 58.9907 59.9668 59.1584 59.8961C59.6671 59.6856 60 59.1876 60 58.6363V16.3636C60 13.3554 57.5525 10.909 54.5455 10.909Z" fill="#5A001B"/>
<path id="Path_2" fill-rule="evenodd" clip-rule="evenodd" d="M12.2726 35.4544C11.9104 35.4544 11.5641 35.5982 11.3084 35.8539L2.72705 44.4352V5.45452C2.72705 3.95111 3.94959 2.72729 5.45428 2.72729H40.9089C42.4138 2.72729 43.6362 3.95111 43.6362 5.45452V32.7272C43.6362 34.2306 42.4136 35.4544 40.9089 35.4544H12.2726Z" fill="#980A34"/>
<path id="Path_3" d="M40.9089 2.72717V29.9998C40.9089 31.5032 39.6864 32.727 38.1817 32.727H9.54532C9.18315 32.727 8.83683 32.8709 8.58115 33.1265L2.72705 38.9806V44.4352L11.3084 35.8539C11.5641 35.5982 11.9103 35.4544 12.2726 35.4544H40.9089C42.4138 35.4544 43.6362 34.2306 43.6362 32.7272V5.45453C43.6362 3.95099 42.4138 2.72717 40.9089 2.72717Z" fill="#AC3B5C"/>
<path id="Path_4" d="M57.2729 55.3444L48.6916 46.7631C48.4359 46.5074 48.0897 46.3636 47.7274 46.3636H19.091C17.5862 46.3636 16.3638 45.1398 16.3638 43.6364V38.1818H40.9092C43.9162 38.1818 46.3638 35.7355 46.3638 32.7272V13.6364H54.5457C56.0505 13.6364 57.2729 14.8602 57.2729 16.3636V55.3444Z" fill="#AC3B5C"/>
<path id="Path_5" fill-rule="evenodd" clip-rule="evenodd" d="M40.9092 38.1818H16.3638V40.909L21.8184 46.3636H47.7275C48.0897 46.3636 48.436 46.5074 48.6917 46.7631L57.2729 55.3444V24.5454L46.3638 13.6364V32.7272C46.3638 35.7354 43.9162 38.1818 40.9092 38.1818Z" fill="#980A34"/>
</g>
</svg>
