<svg width="45" height="60" viewBox="0 0 45 60" fill="none" xmlns="http://www.w3.org/2000/svg">
<g id="clock-active">
<g id="clock">
<path id="Path" fill-rule="evenodd" clip-rule="evenodd" d="M43.7498 52.5H42.4998V6.24996C42.4998 5.55902 41.9407 4.99992 41.2498 4.99992C40.5588 4.99992 39.9997 5.55902 39.9997 6.24996V7.37895C37.204 4.23551 31.7351 0 22.4999 0C13.2648 0 7.79588 4.23551 5.00003 7.37895V6.24996C5.00003 5.55902 4.44093 4.99992 3.74999 4.99992C3.05905 4.99992 2.49995 5.55902 2.49995 6.24996V52.5H1.25004C0.5591 52.5 0 53.0591 0 53.75V58.7501C0 59.4409 0.5591 60 1.25004 60H43.75C44.4409 60 45 59.4409 45 58.75V53.7499C44.9999 53.0591 44.4408 52.5 43.7498 52.5Z" fill="#5A001B"/>
<path id="Path_2" fill-rule="evenodd" clip-rule="evenodd" d="M5.00012 11.5674C5.85699 10.0635 10.7556 2.5 22.5 2.5C34.2444 2.5 39.1431 10.0635 39.9999 11.5674V52.5H32.5V27.4227C34.05 25.341 34.9999 22.7889 34.9999 20.0001C35 13.1079 29.3922 7.50004 22.5 7.50004C15.6079 7.50004 10 13.1079 10 20.0001C10 22.7889 10.9501 25.341 12.5 27.4227V52.5H5V11.5674H5.00012Z" fill="#980A34"/>
<path id="Path_3" opacity="0.2" d="M6.24992 14.9287C6.24992 13.3089 6.83691 11.7602 7.89241 10.5314C10.2639 7.77016 15.1877 3.75004 23.75 3.75004C30.7715 3.75004 35.3311 6.45191 38.0579 8.94766C35.5856 6.20758 30.7272 2.5 22.4999 2.5C10.7555 2.5 5.85687 10.0635 5 11.5674V52.5H6.25004V14.9287H6.24992Z" fill="white"/>
<ellipse id="Oval" cx="22.4999" cy="20.0001" rx="9.99994" ry="9.99996" fill="white"/>
<path id="Path_4" opacity="0.1" d="M13.7499 22.5C13.7499 16.9861 18.236 12.5001 23.7499 12.5001C27.1259 12.5001 30.1036 14.1924 31.9152 16.7622C30.5616 12.8417 26.8744 10 22.4999 10C16.986 10 12.5 14.4861 12.5 20C12.5 22.1378 13.1874 24.1107 14.3346 25.7379C13.9819 24.7169 13.7499 23.6395 13.7499 22.5Z" fill="black"/>
<ellipse id="Oval_2" cx="22.5" cy="45" rx="2.49995" ry="2.49996" fill="url(#paint0_radial_0_573)"/>
<ellipse id="Oval_3" cx="22.5" cy="45" rx="2.49995" ry="2.49996" fill="#D8295D"/>
<path id="Path_5" fill-rule="evenodd" clip-rule="evenodd" d="M15 29.936C16.7781 31.2822 18.9145 32.1373 21.2499 32.3737V40.1774C19.0993 40.7364 17.5 42.6765 17.5 44.9999C17.5 47.7574 19.7423 49.9999 22.5 49.9999C25.2576 49.9999 27.5 47.7576 27.5 44.9999C27.5 42.6764 25.9006 40.7363 23.75 40.1774V32.3737C26.0856 32.1373 28.2219 31.2822 30 29.936V52.5H15V29.936Z" fill="#980A34"/>
<path id="Path_6" opacity="0.1" d="M15 29.936V52.5H16.5625V30.9294C16.0182 30.6346 15.4925 30.309 15 29.936Z" fill="black"/>
<path id="Path_7" opacity="0.1" d="M28.4375 30.9294V52.5H30V29.936C29.5074 30.309 28.9817 30.6346 28.4375 30.9294Z" fill="white"/>
<rect id="Rectangle" x="2.5" y="55" width="39.9999" height="2.49996" fill="#980A34"/>
<path id="Path_8" opacity="0.1" d="M40.8947 55C40.4731 55.7336 39.7136 56.25 38.8067 56.25H2.5V57.5001H42.4999V55.0001H40.8947V55Z" fill="black"/>
<path id="Path_9" fill-rule="evenodd" clip-rule="evenodd" d="M25.6553 21.9366C25.2062 21.1667 24.7819 20.4404 24.3541 20.0128C24.3249 19.9836 24.2947 19.9668 24.2653 19.9404C24.2666 19.9 24.2745 19.8669 24.2745 19.8253C24.2745 19.0188 24.0487 17.9341 23.8089 16.7848C23.5988 15.776 23.3817 14.7323 23.3817 14.1106C23.3817 13.6171 22.9823 13.2178 22.4888 13.2178C21.9953 13.2178 21.596 13.6171 21.596 14.1106C21.596 14.7323 21.3788 15.776 21.1687 16.7848C20.9289 17.9341 20.7031 19.0188 20.7031 19.8253C20.7031 20.862 21.1004 21.4923 21.5721 21.8302C21.6591 22.0224 21.7794 22.2147 21.9657 22.4012C22.3934 22.8289 23.1198 23.2531 23.8896 23.7023C24.5651 24.0969 25.2639 24.5053 25.5937 24.8349C25.8554 25.0966 26.3343 25.0414 26.6643 24.7113C26.9943 24.3812 27.0496 23.9025 26.7878 23.6407C26.4582 23.3109 26.0498 22.6121 25.6553 21.9366Z" fill="#5A001B"/>
</g>
</g>
<defs>
<radialGradient id="paint0_radial_0_573" cx="0" cy="0" r="1" gradientUnits="userSpaceOnUse" gradientTransform="translate(18.1252 41.1749) scale(7.73497)">
<stop stop-color="#E4AA17"/>
<stop offset="0.153" stop-color="#CA9623"/>
<stop offset="0.19" stop-color="#D19A21"/>
<stop offset="0.394" stop-color="#F1B017"/>
<stop offset="0.507" stop-color="#FDB913"/>
<stop offset="1" stop-color="#E4AA17"/>
</radialGradient>
</defs>
</svg>
