<svg width="45" height="60" viewBox="0 0 45 60" fill="none" xmlns="http://www.w3.org/2000/svg">
<path fill-rule="evenodd" clip-rule="evenodd" d="M43.7498 52.5H42.4998V6.24996C42.4998 5.55902 41.9407 4.99992 41.2498 4.99992C40.5588 4.99992 39.9997 5.55902 39.9997 6.24996V7.37895C37.204 4.23551 31.7351 0 22.4999 0C13.2648 0 7.79588 4.23551 5.00003 7.37895V6.24996C5.00003 5.55902 4.44093 4.99992 3.74999 4.99992C3.05905 4.99992 2.49995 5.55902 2.49995 6.24996V52.5H1.25004C0.5591 52.5 0 53.0591 0 53.75V58.7501C0 59.4409 0.5591 60 1.25004 60H43.75C44.4409 60 45 59.4409 45 58.75V53.7499C44.9999 53.0591 44.4408 52.5 43.7498 52.5Z" fill="#5A001B"/>
<path fill-rule="evenodd" clip-rule="evenodd" d="M5.00012 11.5673C5.85699 10.0635 10.7556 2.49994 22.5 2.49994C34.2444 2.49994 39.1431 10.0635 39.9999 11.5673V52.5H32.5V27.4227C34.05 25.341 34.9999 22.7888 34.9999 20C35 13.1079 29.3922 7.49998 22.5 7.49998C15.6079 7.49998 10 13.1079 10 20C10 22.7888 10.9501 25.341 12.5 27.4227V52.5H5V11.5673H5.00012Z" fill="url(#clock_1)"/>
<path opacity="0.2" d="M6.24992 14.9286C6.24992 13.3088 6.83691 11.7601 7.89241 10.5314C10.2639 7.7701 15.1877 3.74998 23.75 3.74998C30.7715 3.74998 35.3311 6.45185 38.0579 8.9476C35.5856 6.20752 30.7272 2.49994 22.4999 2.49994C10.7555 2.49994 5.85687 10.0635 5 11.5673V52.5H6.25004V14.9286H6.24992Z" fill="white"/>
<ellipse cx="22.4999" cy="20" rx="9.99994" ry="9.99996" fill="white"/>
<path opacity="0.1" d="M13.7499 22.5C13.7499 16.9861 18.236 12.5 23.7499 12.5C27.1259 12.5 30.1036 14.1923 31.9152 16.7621C30.5616 12.8416 26.8744 9.99994 22.4999 9.99994C16.986 9.99994 12.5 14.486 12.5 19.9999C12.5 22.1378 13.1874 24.1106 14.3346 25.7379C13.9819 24.7168 13.7499 23.6394 13.7499 22.5Z" fill="black"/>
<ellipse cx="22.5" cy="45" rx="2.49995" ry="2.49996" fill="url(#clock_2)"/>
<ellipse cx="22.5" cy="45" rx="2.49995" ry="2.49996" fill="#D8295D"/>
<path fill-rule="evenodd" clip-rule="evenodd" d="M15 29.936C16.7781 31.2822 18.9145 32.1373 21.2499 32.3737V40.1774C19.0993 40.7364 17.5 42.6765 17.5 44.9999C17.5 47.7574 19.7423 49.9999 22.5 49.9999C25.2576 49.9999 27.5 47.7576 27.5 44.9999C27.5 42.6764 25.9006 40.7363 23.75 40.1774V32.3737C26.0856 32.1373 28.2219 31.2822 30 29.936V52.5H15V29.936Z" fill="url(#clock_3)"/>
<path opacity="0.1" d="M15 29.936V52.5H16.5625V30.9294C16.0182 30.6346 15.4925 30.309 15 29.936Z" fill="black"/>
<path opacity="0.1" d="M28.4375 30.9294V52.5H30V29.936C29.5074 30.309 28.9817 30.6346 28.4375 30.9294Z" fill="white"/>
<rect x="2.5" y="54.9999" width="39.9999" height="2.49996" fill="url(#clock_4)"/>
<path opacity="0.1" d="M40.8947 54.9999C40.4731 55.7335 39.7136 56.25 38.8067 56.25H2.5V57.5H42.4999V55.0001H40.8947V54.9999Z" fill="black"/>
<path fill-rule="evenodd" clip-rule="evenodd" d="M25.6553 21.9367C25.2062 21.1668 24.7819 20.4405 24.3541 20.0128C24.3249 19.9837 24.2947 19.9669 24.2653 19.9404C24.2666 19.9001 24.2745 19.8669 24.2745 19.8253C24.2745 19.0189 24.0487 17.9342 23.8089 16.7849C23.5988 15.776 23.3817 14.7324 23.3817 14.1107C23.3817 13.6172 22.9823 13.2178 22.4888 13.2178C21.9953 13.2178 21.596 13.6172 21.596 14.1107C21.596 14.7324 21.3788 15.776 21.1687 16.7849C20.9289 17.9342 20.7031 19.0189 20.7031 19.8253C20.7031 20.8621 21.1004 21.4923 21.5721 21.8303C21.6591 22.0225 21.7794 22.2148 21.9657 22.4012C22.3934 22.829 23.1198 23.2532 23.8896 23.7024C24.5651 24.0969 25.2639 24.5053 25.5937 24.835C25.8554 25.0967 26.3343 25.0415 26.6643 24.7114C26.9943 24.3812 27.0496 23.9025 26.7878 23.6407C26.4582 23.311 26.0498 22.6122 25.6553 21.9367Z" fill="#5A001B"/>

<defs>
<linearGradient id="clock_1" x1="17.6343" y1="-23.902" x2="-13.7448" y2="32.243" gradientUnits="userSpaceOnUse">
<stop stop-color="#FBFBFB"/>
<stop offset="0.606578" stop-color="#F7F7F7"/>
<stop offset="1" stop-color="#F6F6F6"/>
</linearGradient>
<radialGradient id="clock_2" cx="0" cy="0" r="1" gradientUnits="userSpaceOnUse" gradientTransform="translate(18.1252 41.175) scale(7.73497)">
<stop stop-color="#E4AA17"/>
<stop offset="0.153" stop-color="#CA9623"/>
<stop offset="0.19" stop-color="#D19A21"/>
<stop offset="0.394" stop-color="#F1B017"/>
<stop offset="0.507" stop-color="#FDB913"/>
<stop offset="1" stop-color="#E4AA17"/>
</radialGradient>
<linearGradient id="clock_3" x1="20.4147" y1="18.0214" x2="5.87997" y2="42.719" gradientUnits="userSpaceOnUse">
<stop stop-color="#FBFBFB"/>
<stop offset="0.606578" stop-color="#F7F7F7"/>
<stop offset="1" stop-color="#F6F6F6"/>
</linearGradient>
<linearGradient id="clock_4" x1="16.9392" y1="53.6799" x2="16.8492" y2="57.3617" gradientUnits="userSpaceOnUse">
<stop stop-color="#FBFBFB"/>
<stop offset="0.606578" stop-color="#F7F7F7"/>
<stop offset="1" stop-color="#F6F6F6"/>
</linearGradient>
</defs>
</svg>
