<svg width="40" height="40" viewBox="0 0 40 40" fill="none" xmlns="http://www.w3.org/2000/svg">
<g id="file-video">
<path id="Path" fill-rule="evenodd" clip-rule="evenodd" d="M40 33.7378C40 37.1963 37.1963 40 33.7378 40H6.26223C2.80368 40 0 37.1963 0 33.7378V8.1409L8.1409 0H33.7378C37.1963 0 40 2.80368 40 6.26223V33.7378Z" fill="#89052C"/>
<path id="Path_2" opacity="0.2" d="M0 12.5036V8.1409H4.34184L0 12.5036Z" fill="#5D5D5D"/>
<path id="Path_3" fill-rule="evenodd" clip-rule="evenodd" d="M0 8.1409H5.42732C6.91977 8.1409 8.1409 6.94059 8.1409 5.44814V0L0 8.1409Z" fill="#B0536E"/>
<g id="video-camera">
<path id="Path_4" d="M21.3129 14H12.1882C10.9847 14 10 15.0056 10 16.2346V23.7654C10 24.9944 10.9847 26 12.1882 26H21.3129C22.5164 26 23.5011 24.9944 23.5011 23.7654V16.2346C23.5011 14.9832 22.5164 14 21.3129 14Z" fill="white"/>
<path id="Path_5" d="M28.3808 15.229C28.2495 15.2514 28.1182 15.3184 28.0088 15.3855L24.5952 17.3966V22.581L28.0307 24.5922C28.6652 24.9721 29.453 24.7486 29.825 24.1006C29.9344 23.8994 30 23.676 30 23.4302V16.5251C30 15.6983 29.2342 15.0279 28.3808 15.229Z" fill="white"/>
</g>
</g>
</svg>
