<svg width="40" height="40" viewBox="0 0 40 40" fill="none" xmlns="http://www.w3.org/2000/svg">
<g id="file-pdf">
<path id="Path" fill-rule="evenodd" clip-rule="evenodd" d="M40 33.7378C40 37.1963 37.1963 40 33.7378 40H6.26223C2.80368 40 0 37.1963 0 33.7378V8.1409L8.1409 0H33.7378C37.1963 0 40 2.80368 40 6.26223V33.7378Z" fill="#89052C"/>
<path id="Path_2" opacity="0.2" d="M0 12.5036V8.1409H4.34184L0 12.5036Z" fill="#5D5D5D"/>
<path id="Path_3" fill-rule="evenodd" clip-rule="evenodd" d="M0 8.1409H5.42732C6.91977 8.1409 8.1409 6.94059 8.1409 5.44814V0L0 8.1409Z" fill="#B0536E"/>
<g id="folder">
<path id="Path_4" d="M10.5861 13.2077H19.681L18.6955 11.3146C18.5949 11.1214 18.3941 11 18.1749 11H11.4577C11.2055 11 10.9816 11.1602 10.9019 11.3977L10.2852 13.2338C10.383 13.217 10.4834 13.2077 10.5861 13.2077Z" fill="white"/>
<path id="Path_5" d="M29.4141 28H10.5859C10.2623 28 10 27.7396 10 27.4185V14.9523C10 14.6312 10.2623 14.3708 10.5859 14.3708H29.4141C29.7377 14.3708 30 14.6312 30 14.9523V27.4185C30 27.7396 29.7377 28 29.4141 28Z" fill="white"/>
</g>
</g>
</svg>
