<svg width="40" height="40" viewBox="0 0 40 40" fill="none" xmlns="http://www.w3.org/2000/svg">
<g id="file-sound">
<path id="Path" fill-rule="evenodd" clip-rule="evenodd" d="M40 33.7378C40 37.1963 37.1963 40 33.7378 40H6.26223C2.80368 40 0 37.1963 0 33.7378V8.1409L8.1409 0H33.7378C37.1963 0 40 2.80368 40 6.26223V33.7378Z" fill="#89052C"/>
<path id="Path_2" opacity="0.2" d="M0 12.5036V8.1409H4.34184L0 12.5036Z" fill="#5D5D5D"/>
<path id="Path_3" fill-rule="evenodd" clip-rule="evenodd" d="M0 8.1409H5.42732C6.91977 8.1409 8.1409 6.94059 8.1409 5.44814V0L0 8.1409Z" fill="#B0536E"/>
<g id="volume">
<path id="Path_4" d="M21.6227 11.0673C21.3907 10.9547 21.1173 10.9845 20.9173 11.1487L14.432 16.4291H11.3333C10.5987 16.4291 10 17.0385 10 17.7862V23.2146C10 23.9637 10.5987 24.5717 11.3333 24.5717H14.432L20.916 29.8521C21.0373 29.9498 21.1853 30 21.3333 30C21.432 30 21.5307 29.9769 21.6227 29.9321C21.8533 29.8195 22 29.582 22 29.3215V11.6793C22 11.4188 21.8533 11.1813 21.6227 11.0673Z" fill="white"/>
<path id="Path_5" d="M25.3748 15.7017C25.1121 15.4385 24.6908 15.4425 24.4321 15.7072C24.1734 15.9745 24.1761 16.4034 24.4374 16.668C25.4454 17.6804 26.0001 19.0415 26.0001 20.5004C26.0001 21.9593 25.4454 23.3204 24.4374 24.3328C24.1761 24.5947 24.1734 25.0249 24.4321 25.2923C24.5628 25.4266 24.7348 25.4931 24.9054 25.4931C25.0748 25.4931 25.2441 25.428 25.3748 25.2963C26.6388 24.0302 27.3334 22.3257 27.3334 20.5004C27.3334 18.6751 26.6388 16.9706 25.3748 15.7017Z" fill="white"/>
<path id="Path_6" d="M27.2561 13.7896C26.9935 13.525 26.5721 13.5277 26.3121 13.7937C26.0535 14.0597 26.0561 14.4899 26.3161 14.7531C27.8321 16.2826 28.6668 18.3236 28.6668 20.5004C28.6668 22.6772 27.8321 24.7169 26.3161 26.2463C26.0561 26.5109 26.0535 26.9411 26.3121 27.2071C26.4441 27.3401 26.6148 27.4066 26.7855 27.4066C26.9548 27.4066 27.1255 27.3415 27.2561 27.2098C29.0268 25.4253 30.0001 23.0422 30.0001 20.5004C30.0001 17.9586 29.0268 15.5755 27.2561 13.7896Z" fill="white"/>
</g>
</g>
</svg>
