<svg width="72" height="60" viewBox="0 0 72 60" fill="none" xmlns="http://www.w3.org/2000/svg">
<g id="hands">
<path id="XMLID_311_" fill-rule="evenodd" clip-rule="evenodd" d="M70.5941 15.9311L56.0677 1.40607L47.8738 9.59923L42.7006 9.59895C39.2105 9.59881 35.7989 10.6351 32.8985 12.5763L24.822 17.9821C23.1192 19.1239 22.6833 21.4386 23.8517 23.121C24.9659 24.7253 27.1696 25.1343 28.84 24.1219L32.2576 22.0503C32.7918 21.7264 33.3471 22.4343 32.9053 22.8759L13.7162 42.0634C12.414 43.3655 12.2374 45.4589 13.3907 46.8944C14.6993 48.5235 17.042 48.6769 18.5509 47.3635L16.3307 49.5835C14.8669 51.0471 14.9316 53.4601 16.5243 54.8398C17.9129 56.0426 20.161 55.9056 21.4601 54.6067L23.6274 52.4396C22.3139 53.9483 22.4674 56.2908 24.0967 57.5993C25.5323 58.7525 27.626 58.5757 28.9281 57.2738L32.1868 54.0154L52.2133 44.1252L56.8919 39.447C60.1967 36.1425 62.0504 31.6586 62.0438 26.9852L62.0403 24.4841L70.5941 15.9311Z" fill="url(#paint0_linear_0_8545)"/>
<path id="XMLID_1737_" fill-rule="evenodd" clip-rule="evenodd" d="M57.4449 41.2241L39.0951 22.8761C39.0925 22.8736 39.091 22.8708 39.0886 22.8682L37.3492 21.1297L28.7499 24.7254C27.0451 25.4382 25.0739 24.8673 24.014 23.3539C22.7507 21.5497 23.2166 19.0599 25.0468 17.8345L32.8976 12.578C33.8787 11.921 34.9192 11.3705 36.0006 10.9258C33.8848 10.0558 31.6099 9.59912 29.2997 9.59926L24.1265 9.59954L15.9326 1.40637L1.40625 15.9311L9.96016 24.4843L9.95665 26.9853C9.95004 31.6587 11.8038 36.1425 15.1086 39.4472L19.7872 44.1254L32.9263 57.2633C34.3282 58.665 36.6011 58.665 38.003 57.2633C39.3449 55.9213 39.3987 53.7833 38.1712 52.3732L42.233 56.4347C43.5351 57.7367 45.6288 57.9133 47.0644 56.7602C48.6935 55.4516 48.8471 53.1092 47.5335 51.6004L49.7008 53.7675C50.9999 55.0664 53.2481 55.2035 54.6366 54.0007C56.2295 52.6208 56.294 50.2078 54.8302 48.7443L52.6101 46.5243C54.119 47.8378 56.4616 47.6842 57.7703 46.0553C58.9237 44.6196 58.7471 42.5262 57.4449 41.2241Z" fill="url(#paint1_linear_0_8545)"/>
<path id="XMLID_83_" fill-rule="evenodd" clip-rule="evenodd" d="M71.5882 14.9369C71.0389 14.3878 70.1487 14.3878 69.5993 14.9369L61.0454 23.49C60.7904 23.745 60.6329 24.0972 60.6335 24.4861L60.637 26.9873C60.6429 31.14 59.0946 35.054 56.2674 38.0688L52.3094 34.1111C51.7601 33.5621 50.8699 33.5621 50.3205 34.1111C49.7714 34.6602 49.7714 35.5506 50.3205 36.0998L56.5062 42.2849C57.355 43.1336 57.355 44.5147 56.5062 45.3636C55.6578 46.2121 54.2778 46.2123 53.4287 45.365L42.767 34.7042C42.6704 34.6076 42.5628 34.529 42.4488 34.4665C42.1632 34.3096 41.8349 34.2592 41.5216 34.3157C41.2494 34.3648 40.9887 34.4939 40.7782 34.7042C40.7095 34.7729 40.6495 34.8468 40.598 34.9249C40.5723 34.9638 40.5487 35.0039 40.5273 35.0447C40.42 35.2487 40.3664 35.4737 40.3664 35.6987C40.3664 36.0585 40.5037 36.4184 40.7783 36.6929L53.8358 49.7493C54.6847 50.598 54.6847 51.9791 53.8358 52.8278C52.9872 53.6767 51.6057 53.6767 50.7569 52.8278L37.6993 39.7715C37.665 39.7372 37.6293 39.705 37.5924 39.675C37.0401 39.2245 36.2254 39.2567 35.7105 39.7715C35.4358 40.0461 35.2986 40.4059 35.2986 40.7657C35.2986 40.9907 35.3521 41.2156 35.4594 41.4197C35.5239 41.5422 35.6075 41.6571 35.7105 41.7601L46.3714 52.4201C47.2195 53.2688 47.2193 54.6495 46.3708 55.4979C45.5216 56.3468 44.1405 56.3467 43.2917 55.4979L32.6313 44.8386C32.597 44.8043 32.5613 44.7721 32.5245 44.7421C31.9721 44.2916 31.1575 44.3238 30.6425 44.8386C30.3679 45.1132 30.2306 45.473 30.2306 45.8328C30.2306 46.0578 30.2842 46.2826 30.3915 46.4868C30.4559 46.6093 30.5396 46.7242 30.6425 46.8272L37.2884 53.4725C38.1358 54.3216 38.1355 55.7015 37.2871 56.5498C36.4385 57.3987 35.057 57.3987 34.2082 56.5498L16.103 38.4549C13.0402 35.3923 11.3568 31.3204 11.363 26.9893L11.3665 24.4881C11.3671 24.0989 11.2093 23.7464 10.9541 23.4914L10.9546 23.49L2.40071 14.9369C1.85143 14.3878 0.961275 14.3878 0.411854 14.9369C-0.137285 15.486 -0.137285 16.3763 0.411854 16.9256L8.55318 25.066L8.55036 26.9852C8.54333 31.8892 10.3823 36.5096 13.7393 40.0571L12.6792 41.117C10.7316 43.0646 10.7316 46.2334 12.6792 48.181C13.2534 48.7552 13.9432 49.1712 14.6955 49.4099C13.4444 51.3442 13.6646 53.9603 15.358 55.6537C16.332 56.6275 17.6111 57.1143 18.8904 57.1143C19.8366 57.1143 20.7826 56.8471 21.6053 56.3143C21.839 57.0528 22.2466 57.7476 22.8312 58.3321C23.7748 59.2755 25.0293 59.7952 26.3636 59.7952C27.698 59.7952 28.9525 59.2756 29.8959 58.3321L30.9547 57.2736L32.22 58.5388C33.1625 59.481 34.4155 60 35.7483 60C37.0811 60 38.3341 59.481 39.2766 58.5388C39.8282 57.9872 40.223 57.3374 40.4617 56.6453L41.3034 57.4869C42.2761 58.4595 43.5538 58.9457 44.8315 58.9457C46.1094 58.9457 47.3871 58.4595 48.3599 57.4869C48.9427 56.9042 49.3495 56.2115 49.5831 55.4756C50.4052 56.0085 51.3507 56.2758 52.2966 56.2758C53.5743 56.2758 54.8521 55.7895 55.8248 54.8169C57.5167 53.1251 57.7365 50.511 56.4854 48.5787C57.2353 48.3401 57.9227 47.9251 58.4952 47.3527C60.4406 45.4075 60.4406 42.2422 58.4952 40.2969L58.2574 40.0592C61.6165 36.5113 63.4565 31.8893 63.4495 26.9838L63.4467 25.0663L71.588 16.9259C72.1373 16.3763 72.1373 15.486 71.5882 14.9369V14.9369ZM14.6682 43.1057L15.7225 42.0515L18.7928 45.1215C18.7985 45.1272 18.8047 45.1319 18.8105 45.1375L17.7554 46.1925C17.3431 46.6048 16.7949 46.8319 16.2117 46.8319C15.6286 46.8319 15.0804 46.6048 14.6681 46.1925C13.817 45.3415 13.8172 43.9566 14.6682 43.1057V43.1057ZM17.347 53.665C16.9345 53.2528 16.7076 52.7047 16.7076 52.1216C16.7076 51.5384 16.9345 50.9903 17.347 50.5781L20.803 47.1225L23.8901 50.2094L22.8314 51.268C22.8309 51.2685 20.4341 53.665 20.4341 53.665C19.5831 54.5162 18.1982 54.5163 17.347 53.665ZM27.9072 56.3436C27.4949 56.7558 26.9467 56.9829 26.3636 56.9829C25.7804 56.9829 25.2322 56.7558 24.8199 56.3436C23.9692 55.493 23.969 54.1092 24.8187 53.2581L25.8787 52.1982L28.9658 55.285L27.9072 56.3436Z" fill="#5A001B"/>
<path id="XMLID_86_" fill-rule="evenodd" clip-rule="evenodd" d="M23.1081 10.5695C23.3642 10.8385 23.7249 11.0068 24.1257 11.0068H29.2987C30.3141 11.0068 31.3185 11.1011 32.3052 11.2873C32.2421 11.3285 32.178 11.3674 32.1152 11.4095L24.2644 16.666C23.0625 17.4707 22.2542 18.6967 21.9882 20.1184C21.722 21.5401 22.0325 22.9755 22.8621 24.1604C23.8807 25.6149 25.5479 26.4305 27.2537 26.4305C27.9402 26.4305 28.6331 26.2983 29.2923 26.0227L37.0135 22.7943L41.3713 27.1517C41.6459 27.4263 42.0058 27.5635 42.3656 27.5635C42.7255 27.5635 43.0854 27.4263 43.36 27.1517C43.9091 26.6026 43.9091 25.7122 43.36 25.163L38.4397 20.2433C38.0565 19.7715 37.3954 19.5863 36.8063 19.8326L28.207 23.4283C27.1203 23.8825 25.8414 23.5122 25.1657 22.5475C24.7734 21.9871 24.6266 21.3081 24.7524 20.6357C24.8783 19.9633 25.2605 19.3834 25.8289 19.0028L33.6797 13.7463C36.3582 11.953 39.4776 11.0051 42.701 11.0051H47.8741H47.8854C48.281 11.002 48.6379 10.8354 48.8915 10.5696L57.0613 2.40063C57.6105 1.85154 57.6105 0.961187 57.0613 0.412098C56.5121 -0.137132 55.6219 -0.137132 55.0725 0.412098L47.2909 8.19285H42.7009C40.3902 8.19285 38.1257 8.61005 35.9961 9.41294C33.8489 8.6047 31.5977 8.19468 29.2981 8.19468H24.7101L16.9271 0.411817C16.3778 -0.137272 15.4876 -0.137272 14.9382 0.411817C14.3891 0.960906 14.3891 1.85126 14.9382 2.40049L23.1081 10.5695Z" fill="#5A001B"/>
<path id="XMLID_87_" fill-rule="evenodd" clip-rule="evenodd" d="M46.8408 29.2252C46.471 29.2252 46.1082 29.3756 45.8466 29.6372C45.5836 29.8987 45.4346 30.2615 45.4346 30.6313C45.4346 31.0011 45.5836 31.3639 45.8466 31.6254C46.1082 31.8869 46.471 32.0374 46.8408 32.0374C47.2107 32.0374 47.5735 31.8869 47.835 31.6254C48.0965 31.3639 48.2471 31.0011 48.2471 30.6313C48.2471 30.2615 48.0966 29.8987 47.835 29.6372C47.5735 29.3758 47.2107 29.2252 46.8408 29.2252Z" fill="#5A001B"/>
</g>
<defs>
<linearGradient id="paint0_linear_0_8545" x1="33.5495" y1="-28.6713" x2="5.43654" y2="44.462" gradientUnits="userSpaceOnUse">
<stop stop-color="#FBFBFB"/>
<stop offset="0.606578" stop-color="#F7F7F7"/>
<stop offset="1" stop-color="#F6F6F6"/>
</linearGradient>
<linearGradient id="paint1_linear_0_8545" x1="22.0298" y1="-28.6433" x2="-6.34244" y2="44.163" gradientUnits="userSpaceOnUse">
<stop stop-color="#FBFBFB"/>
<stop offset="0.606578" stop-color="#F7F7F7"/>
<stop offset="1" stop-color="#F6F6F6"/>
</linearGradient>
</defs>
</svg>
