<svg width="159" height="87" viewBox="0 0 159 87" fill="none" xmlns="http://www.w3.org/2000/svg">
<path d="M72.4718 72.48C72.5998 71.648 72.8958 70.888 73.3598 70.2C73.8398 69.496 74.4318 68.944 75.1358 68.544C75.8558 68.128 76.6398 67.912 77.4878 67.896C78.2718 67.896 78.9598 68.072 79.5518 68.424C80.1438 68.76 80.5838 69.176 80.8718 69.672L81.0878 68.136C80.7038 67.704 80.1998 67.36 79.5758 67.104C78.9678 66.848 78.3038 66.72 77.5838 66.72C76.4958 66.736 75.4958 67 74.5838 67.512C73.6878 68.024 72.9358 68.712 72.3278 69.576C71.7358 70.44 71.3678 71.408 71.2238 72.48C71.0798 73.504 71.1838 74.456 71.5358 75.336C71.8878 76.2 72.4318 76.896 73.1678 77.424C73.9198 77.952 74.8238 78.216 75.8798 78.216C76.6478 78.216 77.3678 78.088 78.0398 77.832C78.7118 77.56 79.2878 77.224 79.7678 76.824L79.9838 75.288C79.5518 75.736 78.9838 76.144 78.2798 76.512C77.5918 76.88 76.8318 77.056 75.9998 77.04C75.1678 77.04 74.4638 76.824 73.8878 76.392C73.3278 75.96 72.9198 75.4 72.6638 74.712C72.4078 74.024 72.3438 73.28 72.4718 72.48Z" fill="#1D1D1D"/>
<path d="M85.5944 59.28L82.4264 78H83.6264L86.8424 59.28H85.5944Z" fill="#1D1D1D"/>
<path d="M87.4688 72.48C87.3248 73.504 87.4208 74.456 87.7568 75.336C88.1088 76.2 88.6608 76.896 89.4128 77.424C90.1648 77.952 91.0688 78.216 92.1248 78.216C93.1968 78.216 94.1888 77.96 95.1008 77.448C96.0128 76.936 96.7648 76.248 97.3568 75.384C97.9648 74.504 98.3408 73.536 98.4848 72.48C98.6288 71.456 98.5248 70.512 98.1728 69.648C97.8208 68.768 97.2688 68.064 96.5168 67.536C95.7808 66.992 94.8848 66.72 93.8288 66.72C92.7408 66.72 91.7408 66.984 90.8288 67.512C89.9328 68.024 89.1808 68.72 88.5728 69.6C87.9808 70.464 87.6128 71.424 87.4688 72.48ZM88.6928 72.48C88.8208 71.648 89.1168 70.888 89.5808 70.2C90.0608 69.496 90.6608 68.936 91.3808 68.52C92.1008 68.104 92.8768 67.896 93.7088 67.896C94.5408 67.912 95.2368 68.136 95.7968 68.568C96.3728 69 96.7808 69.56 97.0208 70.248C97.2768 70.936 97.3568 71.68 97.2608 72.48C97.1328 73.312 96.8288 74.08 96.3488 74.784C95.8688 75.472 95.2688 76.024 94.5488 76.44C93.8448 76.856 93.0688 77.056 92.2208 77.04C91.3888 77.04 90.6848 76.824 90.1088 76.392C89.5488 75.96 89.1408 75.4 88.8848 74.712C88.6448 74.008 88.5808 73.264 88.6928 72.48Z" fill="#1D1D1D"/>
<path d="M101.417 72.48C101.545 71.648 101.841 70.888 102.305 70.2C102.785 69.496 103.377 68.944 104.081 68.544C104.801 68.128 105.585 67.912 106.433 67.896C107.217 67.896 107.905 68.072 108.497 68.424C109.089 68.76 109.529 69.176 109.817 69.672L110.033 68.136C109.649 67.704 109.145 67.36 108.521 67.104C107.913 66.848 107.249 66.72 106.529 66.72C105.441 66.736 104.441 67 103.529 67.512C102.633 68.024 101.881 68.712 101.273 69.576C100.681 70.44 100.313 71.408 100.169 72.48C100.025 73.504 100.129 74.456 100.481 75.336C100.833 76.2 101.377 76.896 102.113 77.424C102.865 77.952 103.769 78.216 104.825 78.216C105.593 78.216 106.313 78.088 106.985 77.832C107.657 77.56 108.233 77.224 108.713 76.824L108.929 75.288C108.497 75.736 107.929 76.144 107.225 76.512C106.537 76.88 105.777 77.056 104.945 77.04C104.113 77.04 103.409 76.824 102.833 76.392C102.273 75.96 101.865 75.4 101.609 74.712C101.353 74.024 101.289 73.28 101.417 72.48Z" fill="#1D1D1D"/>
<path d="M114.42 59.28L111.252 78H112.452L115.692 59.28H114.42ZM118.908 66.96L113.148 71.472L117.54 78H119.028L114.612 71.616L120.54 66.96H118.908Z" fill="#1D1D1D"/>
<path d="M121.725 74.736L120.693 75.288C120.821 75.768 121.045 76.24 121.365 76.704C121.685 77.152 122.109 77.52 122.637 77.808C123.165 78.096 123.797 78.24 124.533 78.24C125.237 78.24 125.861 78.096 126.405 77.808C126.965 77.504 127.405 77.104 127.725 76.608C128.061 76.112 128.245 75.552 128.277 74.928C128.309 74.32 128.189 73.816 127.917 73.416C127.661 73.016 127.309 72.688 126.861 72.432C126.429 72.16 125.949 71.92 125.421 71.712C125.005 71.552 124.629 71.384 124.293 71.208C123.957 71.032 123.693 70.808 123.501 70.536C123.309 70.264 123.229 69.92 123.261 69.504C123.309 68.992 123.541 68.584 123.957 68.28C124.373 67.976 124.877 67.824 125.469 67.824C126.109 67.824 126.629 68 127.029 68.352C127.445 68.688 127.781 69.096 128.037 69.576L128.973 68.976C128.701 68.352 128.277 67.824 127.701 67.392C127.141 66.96 126.421 66.744 125.541 66.744C124.981 66.744 124.437 66.856 123.909 67.08C123.397 67.304 122.965 67.632 122.613 68.064C122.277 68.48 122.093 69.008 122.061 69.648C122.029 70.272 122.141 70.776 122.397 71.16C122.653 71.544 122.997 71.856 123.429 72.096C123.861 72.336 124.301 72.544 124.749 72.72C125.149 72.864 125.525 73.04 125.877 73.248C126.245 73.456 126.541 73.712 126.765 74.016C126.989 74.304 127.093 74.656 127.077 75.072C127.029 75.664 126.773 76.152 126.309 76.536C125.861 76.92 125.301 77.112 124.629 77.112C124.085 77.112 123.621 77 123.237 76.776C122.853 76.552 122.541 76.264 122.301 75.912C122.061 75.544 121.869 75.152 121.725 74.736Z" fill="#1D1D1D"/>
<path d="M71.5996 51V50.16L75.2796 49.56V20.44L71.5996 19.88V19H95.6796V28.16H94.5996L91.5196 20H79.6796V34.4H84.8796L87.2396 28.6H88.2796V41.24H87.2396L84.8396 35.36H79.6796V50.04H92.2396L95.5196 41.24H96.5596V51H71.5996Z" fill="#1D1D1D"/>
<path d="M99.6277 51V50.2L102.628 49.8V20.2L99.6277 19.8V19H106.628V49.8L109.428 50.2V51H99.6277Z" fill="#1D1D1D"/>
<path d="M115.633 25.64C114.886 25.64 114.246 25.3867 113.713 24.88C113.18 24.3467 112.913 23.7067 112.913 22.96C112.913 22.2133 113.166 21.5867 113.673 21.08C114.206 20.5733 114.86 20.32 115.633 20.32C116.353 20.32 116.966 20.5733 117.473 21.08C117.98 21.5867 118.233 22.2133 118.233 22.96C118.233 23.7067 117.98 24.3467 117.473 24.88C116.966 25.3867 116.353 25.64 115.633 25.64ZM111.393 51V50.2L114.193 49.8V31.52L111.393 31.12V30.32H118.193V49.8L120.993 50.2V51H111.393Z" fill="#1D1D1D"/>
<path d="M131.196 51.4C129.436 51.4 128.022 50.96 126.956 50.08C125.916 49.2 125.396 47.8 125.396 45.88V31.48L122.556 31.08V30.28H125.396V26.96L129.396 25.96V30.28H134.596V31.08L129.396 31.48V45.8C129.396 48.6267 130.409 50.04 132.436 50.04C132.862 50.04 133.262 49.9733 133.636 49.84C134.036 49.7067 134.342 49.5733 134.556 49.44C134.796 49.3067 134.942 49.2133 134.996 49.16L135.516 49.8C134.316 50.8667 132.876 51.4 131.196 51.4Z" fill="#1D1D1D"/>
<path d="M146.772 51.4C144.798 51.4 143.012 50.96 141.412 50.08C139.812 49.1733 138.545 47.9067 137.612 46.28C136.678 44.6533 136.212 42.7733 136.212 40.64C136.212 38.5067 136.665 36.64 137.572 35.04C138.505 33.4133 139.745 32.16 141.292 31.28C142.865 30.3733 144.612 29.92 146.532 29.92C148.212 29.92 149.718 30.2933 151.052 31.04C152.385 31.7867 153.425 32.8267 154.172 34.16C154.918 35.4667 155.305 36.9733 155.332 38.68H140.612V42.64C140.612 44.9867 141.132 46.8933 142.172 48.36C143.238 49.8 144.772 50.52 146.772 50.52C148.612 50.52 150.238 50 151.652 48.96C153.065 47.92 153.932 46.5733 154.252 44.92H155.172C154.798 46.8933 153.852 48.4667 152.332 49.64C150.812 50.8133 148.958 51.4 146.772 51.4ZM150.932 37.68C150.932 35.36 150.572 33.64 149.852 32.52C149.132 31.3733 148.012 30.8 146.492 30.8C144.705 30.8 143.318 31.4267 142.332 32.68C141.345 33.9333 140.785 35.6 140.652 37.68H150.932Z" fill="#1D1D1D"/>
<path fill-rule="evenodd" clip-rule="evenodd" d="M59.3426 48.0002L29.9965 14.0003L0.650391 48.0002H59.3426Z" fill="#89052C"/>
<path fill-rule="evenodd" clip-rule="evenodd" d="M59.3413 48.0002H49.9742L29.9951 14.0002L59.3413 48.0002Z" fill="#68001F"/>
<path fill-rule="evenodd" clip-rule="evenodd" d="M44.4332 48.0002L29.9969 14.0002L15.5605 48.0002H44.4332Z" fill="#B21342"/>
<path fill-rule="evenodd" clip-rule="evenodd" d="M59.3504 48L30.0043 82L0.658203 48H59.3504Z" fill="#6D0120"/>
<path fill-rule="evenodd" clip-rule="evenodd" d="M59.3501 48H49.983L30.0039 82L59.3501 48Z" fill="#5A001B"/>
<path fill-rule="evenodd" clip-rule="evenodd" d="M44.44 48L30.0037 82.0001L15.5674 48H44.44Z" fill="#980A34"/>
<path fill-rule="evenodd" clip-rule="evenodd" d="M52.2096 55.6612L33.9676 48.353C33.8797 49.0423 33.6163 49.6768 33.2236 50.2103L51.5255 57.5406L52.2096 55.6612ZM46.5917 39.732L45.5917 38L32.8797 45.0655C33.3429 45.5459 33.687 46.1418 33.8646 46.8058L46.5917 39.732ZM30 49.8417C31.1046 49.8417 32 48.9463 32 47.8417C32 46.7371 31.1046 45.8417 30 45.8417C28.8954 45.8417 28 46.7371 28 47.8417C28 48.9463 28.8954 49.8417 30 49.8417Z" fill="white"/>
<path fill-rule="evenodd" clip-rule="evenodd" d="M29.6459 30.5L14.9729 13.5L0.299805 30.5H29.6459Z" fill="#89052C"/>
<path fill-rule="evenodd" clip-rule="evenodd" d="M29.6457 30.5H24.9622L14.9727 13.5L29.6457 30.5Z" fill="#68001F"/>
<path fill-rule="evenodd" clip-rule="evenodd" d="M22.1912 30.5L14.973 13.5L7.75488 30.5H22.1912Z" fill="#B21342"/>
<path fill-rule="evenodd" clip-rule="evenodd" d="M29.6498 30.5L14.9768 47.5L0.303711 30.5H29.6498Z" fill="#6D0120"/>
<path fill-rule="evenodd" clip-rule="evenodd" d="M29.6497 30.5H24.9661L14.9766 47.5L29.6497 30.5Z" fill="#5A001B"/>
<path fill-rule="evenodd" clip-rule="evenodd" d="M22.1951 30.5L14.977 47.5L7.75879 30.5H22.1951Z" fill="#980A34"/>
<path fill-rule="evenodd" clip-rule="evenodd" d="M13.3349 29.1882L5.60985 23.1163L4.96707 23.8823L12.7166 29.9747C12.8495 29.6713 13.0584 29.3986 13.3349 29.1882ZM14.9118 21.5666L13.9119 21.5666L14.0306 28.846C14.3625 28.7569 14.7066 28.7569 15.0304 28.8374L14.9118 21.5666Z" fill="white"/>
<path d="M14.048 29.9125C13.5697 30.1886 13.4059 30.8002 13.682 31.2785C13.9582 31.7568 14.5697 31.9207 15.048 31.6445C15.5263 31.3684 15.6902 30.7568 15.4141 30.2785C15.1379 29.8002 14.5263 29.6363 14.048 29.9125Z" fill="white"/>
</svg>
