<svg width="159" height="87" viewBox="0 0 159 87" fill="none" xmlns="http://www.w3.org/2000/svg">
<path d="M71.5996 40V39.16L75.2796 38.56V9.44L71.5996 8.88V8H95.6796V17.16H94.5996L91.5196 9H79.6796V23.4H84.8796L87.2396 17.6H88.2796V30.24H87.2396L84.8396 24.36H79.6796V39.04H92.2396L95.5196 30.24H96.5596V40H71.5996Z" fill="#1D1D1D"/>
<path d="M99.6277 40V39.2L102.628 38.8V9.2L99.6277 8.8V8H106.628V38.8L109.428 39.2V40H99.6277Z" fill="#1D1D1D"/>
<path d="M115.633 14.64C114.886 14.64 114.246 14.3867 113.713 13.88C113.18 13.3467 112.913 12.7067 112.913 11.96C112.913 11.2133 113.166 10.5867 113.673 10.08C114.206 9.57333 114.86 9.32 115.633 9.32C116.353 9.32 116.966 9.57333 117.473 10.08C117.98 10.5867 118.233 11.2133 118.233 11.96C118.233 12.7067 117.98 13.3467 117.473 13.88C116.966 14.3867 116.353 14.64 115.633 14.64ZM111.393 40V39.2L114.193 38.8V20.52L111.393 20.12V19.32H118.193V38.8L120.993 39.2V40H111.393Z" fill="#1D1D1D"/>
<path d="M131.196 40.4C129.436 40.4 128.022 39.96 126.956 39.08C125.916 38.2 125.396 36.8 125.396 34.88V20.48L122.556 20.08V19.28H125.396V15.96L129.396 14.96V19.28H134.596V20.08L129.396 20.48V34.8C129.396 37.6267 130.409 39.04 132.436 39.04C132.862 39.04 133.262 38.9733 133.636 38.84C134.036 38.7067 134.342 38.5733 134.556 38.44C134.796 38.3067 134.942 38.2133 134.996 38.16L135.516 38.8C134.316 39.8667 132.876 40.4 131.196 40.4Z" fill="#1D1D1D"/>
<path d="M146.772 40.4C144.798 40.4 143.012 39.96 141.412 39.08C139.812 38.1733 138.545 36.9067 137.612 35.28C136.678 33.6533 136.212 31.7733 136.212 29.64C136.212 27.5067 136.665 25.64 137.572 24.04C138.505 22.4133 139.745 21.16 141.292 20.28C142.865 19.3733 144.612 18.92 146.532 18.92C148.212 18.92 149.718 19.2933 151.052 20.04C152.385 20.7867 153.425 21.8267 154.172 23.16C154.918 24.4667 155.305 25.9733 155.332 27.68H140.612V31.64C140.612 33.9867 141.132 35.8933 142.172 37.36C143.238 38.8 144.772 39.52 146.772 39.52C148.612 39.52 150.238 39 151.652 37.96C153.065 36.92 153.932 35.5733 154.252 33.92H155.172C154.798 35.8933 153.852 37.4667 152.332 38.64C150.812 39.8133 148.958 40.4 146.772 40.4ZM150.932 26.68C150.932 24.36 150.572 22.64 149.852 21.52C149.132 20.3733 148.012 19.8 146.492 19.8C144.705 19.8 143.318 20.4267 142.332 21.68C141.345 22.9333 140.785 24.6 140.652 26.68H150.932Z" fill="#1D1D1D"/>
<mask id="mask0_1_2872" style="mask-type:alpha" maskUnits="userSpaceOnUse" x="0" y="48" width="60" height="35">
<rect y="48" width="60" height="35" fill="white"/>
</mask>
<g mask="url(mask0_1_2872)">
<path fill-rule="evenodd" clip-rule="evenodd" d="M0 47.3164L30.1549 45.9888L60 47.3164L30 81.9999L0 47.3164Z" fill="#6D0120"/>
<path fill-rule="evenodd" clip-rule="evenodd" d="M50.3707 47.4073L30 82L59.7383 47.619C59.8411 47.5 59.7559 47.3164 59.5977 47.3164H50.5304C50.4647 47.3164 50.4037 47.351 50.3707 47.4073Z" fill="#5A001B"/>
<path fill-rule="evenodd" clip-rule="evenodd" d="M9.57617 34H50.4245L30.0003 82L9.57617 34Z" fill="#980A34"/>
</g>
<mask id="mask1_1_2872" style="mask-type:alpha" maskUnits="userSpaceOnUse" x="0" y="13" width="60" height="35">
<rect width="60" height="35" transform="matrix(1 0 0 -1 0 48)" fill="white"/>
</mask>
<g mask="url(mask1_1_2872)">
<path fill-rule="evenodd" clip-rule="evenodd" d="M0 48.6836L30.1549 50.0112L60 48.6836L30 14.0001L0 48.6836Z" fill="#89052C"/>
<path fill-rule="evenodd" clip-rule="evenodd" d="M50.3707 48.5927L30 14L59.7383 48.381C59.8411 48.5 59.7559 48.6836 59.5977 48.6836H50.5304C50.4647 48.6836 50.4037 48.649 50.3707 48.5927Z" fill="#68001F"/>
<path fill-rule="evenodd" clip-rule="evenodd" d="M9.57617 62H50.4245L30.0003 14L9.57617 62Z" fill="#B21342"/>
</g>
<path fill-rule="evenodd" clip-rule="evenodd" d="M52.2096 55.6612L33.9676 48.353C33.8797 49.0423 33.6163 49.6768 33.2236 50.2103L51.5255 57.5406L52.2096 55.6612ZM46.5917 39.732L45.5917 38L32.8797 45.0655C33.3429 45.5459 33.687 46.1418 33.8646 46.8058L46.5917 39.732ZM30 49.8417C31.1046 49.8417 32 48.9463 32 47.8417C32 46.7371 31.1046 45.8417 30 45.8417C28.8954 45.8417 28 46.7371 28 47.8417C28 48.9463 28.8954 49.8417 30 49.8417Z" fill="white"/>
<mask id="mask2_1_2872" style="mask-type:alpha" maskUnits="userSpaceOnUse" x="0" y="30" width="30" height="18">
<rect y="30.5" width="30" height="17.5" fill="white"/>
</mask>
<g mask="url(mask2_1_2872)">
<path fill-rule="evenodd" clip-rule="evenodd" d="M0 30.1582L15.0775 29.4944L30 30.1582L15 47.5L0 30.1582Z" fill="#6D0120"/>
<path fill-rule="evenodd" clip-rule="evenodd" d="M25.1854 30.2036L15 47.5L29.8692 30.3095C29.9205 30.25 29.8779 30.1582 29.7988 30.1582H25.2652C25.2323 30.1582 25.2019 30.1755 25.1854 30.2036Z" fill="#5A001B"/>
<path fill-rule="evenodd" clip-rule="evenodd" d="M4.78809 23.5H25.2122L15.0002 47.5L4.78809 23.5Z" fill="#980A34"/>
</g>
<mask id="mask3_1_2872" style="mask-type:alpha" maskUnits="userSpaceOnUse" x="0" y="13" width="30" height="18">
<rect width="30" height="17.5" transform="matrix(1 0 0 -1 0 30.5)" fill="white"/>
</mask>
<g mask="url(mask3_1_2872)">
<path fill-rule="evenodd" clip-rule="evenodd" d="M0 30.8418L15.0775 31.5056L30 30.8418L15 13.5L0 30.8418Z" fill="#89052C"/>
<path fill-rule="evenodd" clip-rule="evenodd" d="M25.1854 30.7964L15 13.5L29.8692 30.6905C29.9205 30.75 29.8779 30.8418 29.7988 30.8418H25.2652C25.2323 30.8418 25.2019 30.8245 25.1854 30.7964Z" fill="#68001F"/>
<path fill-rule="evenodd" clip-rule="evenodd" d="M4.78809 37.5H25.2122L15.0002 13.5L4.78809 37.5Z" fill="#B21342"/>
</g>
<path fill-rule="evenodd" clip-rule="evenodd" d="M13.3349 29.1882L5.60985 23.1163L4.96707 23.8823L12.7166 29.9747C12.8495 29.6713 13.0584 29.3986 13.3349 29.1882ZM14.9118 21.5666L13.9119 21.5666L14.0306 28.846C14.3625 28.7569 14.7066 28.7569 15.0304 28.8374L14.9118 21.5666Z" fill="white"/>
<circle r="1" transform="matrix(-0.5 -0.866025 -0.866025 0.5 14.548 30.7785)" fill="white"/>
</svg>
