<svg width="60" height="60" viewBox="0 0 60 60" fill="none" xmlns="http://www.w3.org/2000/svg">
<g id="pay-per-click">
<g id="Group 4">
<g id="diamond 3">
<path id="Vector" fill-rule="evenodd" clip-rule="evenodd" d="M47.5276 28L24.0005 0.800049L0.473633 28H47.5276Z" fill="#89052C"/>
<path id="Vector_2" fill-rule="evenodd" clip-rule="evenodd" d="M47.527 28H40.0173L24 0.800049L47.527 28Z" fill="#68001F"/>
<path id="Vector_3" fill-rule="evenodd" clip-rule="evenodd" d="M35.5741 28L24.0005 0.800049L12.4268 28H35.5741Z" fill="#B21342"/>
<path id="Vector_4" fill-rule="evenodd" clip-rule="evenodd" d="M47.5334 28L24.0064 55.2L0.479492 28H47.5334Z" fill="#6D0120"/>
<path id="Vector_5" fill-rule="evenodd" clip-rule="evenodd" d="M47.5334 28H40.0236L24.0063 55.2L47.5334 28Z" fill="#5A001B"/>
<path id="Vector_6" fill-rule="evenodd" clip-rule="evenodd" d="M35.58 28L24.0064 55.2L12.4326 28H35.58Z" fill="#980A34"/>
</g>
<g id="Group 2">
<path id="Shape" fill-rule="evenodd" clip-rule="evenodd" d="M21.3354 25.9013L8.97538 16.1861L7.94692 17.4118L20.3462 27.1596C20.5588 26.6742 20.893 26.2379 21.3354 25.9013ZM23.8586 13.7067L22.2586 13.7066L22.4485 25.3538C22.9796 25.2112 23.5302 25.2112 24.0482 25.34L23.8586 13.7067Z" fill="white"/>
<circle id="Oval" r="1.6" transform="matrix(-0.5 -0.866025 -0.866025 0.5 23.2763 28.4456)" fill="white"/>
</g>
</g>
<g id="Group">
<path id="Path" fill-rule="evenodd" clip-rule="evenodd" d="M44.1663 59.9988C43.6815 59.9988 43.2102 59.7377 42.9651 59.2809L39.3509 52.5574L32.3304 59.598C31.9388 59.9908 31.3556 60.1081 30.8416 59.895C30.3329 59.6845 30 59.1865 30 58.6352V23.1813C30 22.6434 30.3169 22.1546 30.8096 21.9361C31.2996 21.7178 31.8749 21.807 32.2771 22.1679L59.5498 46.7129C59.9679 47.091 60.1117 47.6877 59.9094 48.215C59.707 48.7423 59.2009 49.0899 58.6363 49.0899H48.6328L51.7622 54.7694C51.9407 55.0944 51.978 55.4779 51.8687 55.8321C51.7595 56.1864 51.5091 56.4806 51.1762 56.6458L44.7761 59.8538C44.5818 59.9522 44.374 59.9988 44.1663 59.9988Z" fill="#5A001B"/>
</g>
<path id="Path_2" fill-rule="evenodd" clip-rule="evenodd" d="M39.6838 48.9302C39.7504 48.9302 39.8143 48.9355 39.8809 48.9449C40.3097 49.0075 40.6799 49.2684 40.885 49.648L44.7388 56.8229L48.6886 54.8441L45.1304 48.3843C44.8986 47.9622 44.9067 47.4481 45.1518 47.0326C45.3968 46.6172 45.8443 46.3628 46.3264 46.3628H55.0835L32.7271 26.2428V55.3366L38.7196 49.3309C38.9753 49.0727 39.3241 48.9302 39.6838 48.9302Z" fill="#980A34"/>
<path id="Path_3" d="M46.6164 52.8205C45.571 53.3444 44.2983 52.9413 43.745 51.9112L40.885 46.5865C40.6799 46.2069 40.3097 45.946 39.8809 45.8834C39.8143 45.874 39.7504 45.8687 39.6838 45.8687C39.3241 45.8687 38.9753 46.0112 38.7196 46.2694L32.7271 52.2751V55.3366L38.7196 49.3309C38.9753 49.0725 39.3241 48.9301 39.6838 48.9301C39.7504 48.9301 39.8143 48.9355 39.8809 48.9448C40.3097 49.0075 40.6799 49.2684 40.885 49.6479L44.7388 56.8229L48.6886 54.8441L47.3669 52.4448L46.6164 52.8205Z" fill="#AC3B5C"/>
</g>
</svg>
