<svg width="60" height="60" viewBox="0 0 60 60" fill="none" xmlns="http://www.w3.org/2000/svg">
<path opacity="0.1" d="M24.6377 8.4766C24.6377 10.1557 25.5004 11.6433 26.8053 12.5198C27.5819 13.0414 28.515 13.3464 29.5161 13.3464C30.5171 13.3464 31.4504 13.0414 32.2269 12.5198C33.5317 11.6433 34.3945 10.1557 34.3945 8.4766V6.04169C34.3945 3.36327 32.1992 1.17188 29.5161 1.17188C26.833 1.17188 24.6378 3.36327 24.6378 6.04169V8.4766H24.6377Z" fill="black"/>
<path fill-rule="evenodd" clip-rule="evenodd" d="M26.8052 12.5197C23.5372 13.6493 21.1738 16.7588 21.1738 20.3927V31.4962C21.1738 33.0229 22.4251 34.272 23.9545 34.272C24.4179 39.8237 24.8815 50.5003 25.3449 56.0519C25.4719 57.5733 26.5966 58.8278 28.1256 58.8278H30.9064C32.4354 58.8278 33.5602 57.5732 33.6872 56.052L35.0776 34.2721C36.6069 34.2721 37.8582 33.0229 37.8582 31.4963V20.3928C37.8582 16.7589 35.4948 13.6495 32.2268 12.5199C31.4503 13.0415 30.5171 13.3465 29.516 13.3465C28.5149 13.3464 27.5818 13.0414 26.8052 12.5197Z" fill="url(#paint0_linear_0_651)"/>
<path fill-rule="evenodd" clip-rule="evenodd" d="M34.2927 12.183C35.0919 11.1589 35.5685 9.87229 35.5685 8.47659V6.04168C35.5684 2.7103 32.8533 0 29.5161 0C26.1789 0 23.4639 2.7103 23.4639 6.04168V8.47659C23.4639 9.87217 23.9404 11.1589 24.7396 12.1829C21.8472 13.8646 20.0001 16.9762 20.0001 20.3927V20.6711C20.0001 21.3183 20.5257 21.8429 21.174 21.8429C21.8224 21.8429 22.3479 21.3183 22.3479 20.6711V20.3927C22.3479 17.5277 24.0742 14.9468 26.6926 13.8195C27.5361 14.2654 28.4972 14.5182 29.5161 14.5182C30.5351 14.5182 31.4962 14.2654 32.3395 13.8195C34.9573 14.9468 36.6843 17.5296 36.6843 20.3926V31.4961C36.6843 32.3805 35.9635 33.1 35.0775 33.1C34.4582 33.1 33.9454 33.5803 33.906 34.1973L32.5165 55.9646C32.4423 56.8068 31.8671 57.6558 30.9065 57.6558H28.1257C27.1614 57.6558 26.5854 56.8 26.5149 55.9546C26.2846 53.1945 26.0494 49.0783 25.822 45.0976C25.5937 41.1 25.3575 36.9663 25.1245 34.1747C25.0738 33.5673 24.5651 33.1002 23.9547 33.1002C23.0687 33.1002 22.3478 32.3807 22.3478 31.4963V31.218C22.3478 30.5708 21.8223 30.0461 21.1739 30.0461C20.5256 30.0461 20 30.5708 20 31.218V31.4963C20 33.2935 21.2091 34.814 22.858 35.2896C23.065 38.0005 23.2745 41.6699 23.478 45.2312C23.7062 49.227 23.9422 53.3588 24.1751 56.1494C24.3583 58.3444 26.0566 59.9998 28.1256 59.9998H30.9064C32.9754 59.9998 34.6738 58.3445 34.857 56.1494C34.8577 56.1417 34.8581 56.1342 34.8587 56.1266L36.1891 35.2853C37.8301 34.8046 39.0321 33.288 39.0321 31.4963V20.3928C39.0322 16.9785 37.1846 13.8652 34.2927 12.183V12.183ZM29.5161 12.1745C27.4735 12.1745 25.8117 10.5156 25.8117 8.47659V6.04168C25.8117 4.00263 27.4735 2.34374 29.5161 2.34374C31.5587 2.34374 33.2205 4.00263 33.2205 6.04168V8.47659C33.2205 10.5156 31.5587 12.1745 29.5161 12.1745Z" fill="#5A001B"/>
<path d="M21.1743 27.1163C21.8226 27.1163 22.3482 26.5917 22.3482 25.9445C22.3482 25.2972 21.8226 24.7726 21.1743 24.7726H21.1734C20.5251 24.7726 20 25.2972 20 25.9445C20 26.5917 20.5259 27.1163 21.1743 27.1163Z" fill="black"/>
<path opacity="0.1" d="M4.6377 8.4766C4.6377 10.1557 5.50041 11.6433 6.80533 12.5198C7.58188 13.0414 8.51502 13.3464 9.51614 13.3464C10.5171 13.3464 11.4504 13.0414 12.2269 12.5198C13.5317 11.6433 14.3945 10.1557 14.3945 8.4766V6.04169C14.3945 3.36327 12.1992 1.17188 9.51614 1.17188C6.83303 1.17188 4.63781 3.36327 4.63781 6.04169V8.4766H4.6377Z" fill="black"/>
<path fill-rule="evenodd" clip-rule="evenodd" d="M6.80522 12.5197C3.53716 13.6493 1.17383 16.7588 1.17383 20.3927V31.4962C1.17383 33.0229 2.4251 34.272 3.95448 34.272C4.41794 39.8237 4.88152 50.5003 5.34487 56.0519C5.47189 57.5733 6.59661 58.8278 8.12564 58.8278H10.9064C12.4354 58.8278 13.5602 57.5732 13.6872 56.052L15.0776 34.2721C16.6069 34.2721 17.8582 33.0229 17.8582 31.4963V20.3928C17.8582 16.7589 15.4948 13.6495 12.2268 12.5199C11.4503 13.0415 10.5171 13.3465 9.51602 13.3465C8.51491 13.3464 7.58176 13.0414 6.80522 12.5197Z" fill="url(#paint1_linear_0_651)"/>
<path fill-rule="evenodd" clip-rule="evenodd" d="M14.2927 12.183C15.0919 11.1589 15.5685 9.87229 15.5685 8.47659V6.04168C15.5684 2.7103 12.8533 0 9.51611 0C6.17891 0 3.46387 2.7103 3.46387 6.04168V8.47659C3.46387 9.87217 3.94037 11.1589 4.73957 12.1829C1.84716 13.8646 0.000117392 16.9762 0.000117392 20.3927V20.6711C0.000117392 21.3183 0.525679 21.8429 1.17403 21.8429C1.82239 21.8429 2.34795 21.3183 2.34795 20.6711V20.3927C2.34795 17.5277 4.07419 14.9468 6.69261 13.8195C7.53607 14.2654 8.49715 14.5182 9.51611 14.5182C10.5351 14.5182 11.4962 14.2654 12.3395 13.8195C14.9573 14.9468 16.6843 17.5296 16.6843 20.3926V31.4961C16.6843 32.3805 15.9635 33.1 15.0775 33.1C14.4582 33.1 13.9454 33.5803 13.906 34.1973L12.5165 55.9646C12.4423 56.8068 11.8671 57.6558 10.9065 57.6558H8.12573C7.16136 57.6558 6.58543 56.8 6.51488 55.9546C6.28456 53.1945 6.04942 49.0783 5.82203 45.0976C5.59371 41.1 5.35752 36.9663 5.12449 34.1747C5.07378 33.5673 4.56512 33.1002 3.95469 33.1002C3.06873 33.1002 2.34783 32.3807 2.34783 31.4963V31.218C2.34783 30.5708 1.82227 30.0461 1.17392 30.0461C0.525562 30.0461 0 30.5708 0 31.218V31.4963C0 33.2935 1.20913 34.814 2.85801 35.2896C3.06498 38.0005 3.27452 41.6699 3.47796 45.2312C3.70617 49.227 3.94224 53.3588 4.17515 56.1494C4.35828 58.3444 6.05658 59.9998 8.12561 59.9998H10.9064C12.9754 59.9998 14.6738 58.3445 14.857 56.1494C14.8577 56.1417 14.8581 56.1342 14.8587 56.1266L16.1891 35.2853C17.8301 34.8046 19.0321 33.288 19.0321 31.4963V20.3928C19.0322 16.9785 17.1846 13.8652 14.2927 12.183V12.183ZM9.51611 12.1745C7.4735 12.1745 5.8117 10.5156 5.8117 8.47659V6.04168C5.8117 4.00263 7.4735 2.34374 9.51611 2.34374C11.5587 2.34374 13.2205 4.00263 13.2205 6.04168V8.47659C13.2205 10.5156 11.5587 12.1745 9.51611 12.1745Z" fill="#5A001B"/>
<path d="M1.17427 27.1163C1.82262 27.1163 2.34818 26.5917 2.34818 25.9445C2.34818 25.2972 1.82262 24.7726 1.17427 24.7726H1.17345C0.525092 24.7726 0 25.2972 0 25.9445C0 26.5917 0.525914 27.1163 1.17427 27.1163Z" fill="black"/>
<path opacity="0.1" d="M44.6377 8.4766C44.6377 10.1557 45.5004 11.6433 46.8053 12.5198C47.5819 13.0414 48.515 13.3464 49.5161 13.3464C50.5171 13.3464 51.4504 13.0414 52.2269 12.5198C53.5317 11.6433 54.3945 10.1557 54.3945 8.4766V6.04169C54.3945 3.36327 52.1992 1.17188 49.5161 1.17188C46.833 1.17188 44.6378 3.36327 44.6378 6.04169V8.4766H44.6377Z" fill="black"/>
<path fill-rule="evenodd" clip-rule="evenodd" d="M46.8052 12.5197C43.5372 13.6493 41.1738 16.7588 41.1738 20.3927V31.4962C41.1738 33.0229 42.4251 34.272 43.9545 34.272C44.4179 39.8237 44.8815 50.5003 45.3449 56.0519C45.4719 57.5733 46.5966 58.8278 48.1256 58.8278H50.9064C52.4354 58.8278 53.5602 57.5732 53.6872 56.052L55.0776 34.2721C56.6069 34.2721 57.8582 33.0229 57.8582 31.4963V20.3928C57.8582 16.7589 55.4948 13.6495 52.2268 12.5199C51.4503 13.0415 50.5171 13.3465 49.516 13.3465C48.5149 13.3464 47.5818 13.0414 46.8052 12.5197Z" fill="url(#paint2_linear_0_651)"/>
<path fill-rule="evenodd" clip-rule="evenodd" d="M54.2927 12.183C55.0919 11.1589 55.5685 9.87229 55.5685 8.47659V6.04168C55.5684 2.7103 52.8533 0 49.5161 0C46.1789 0 43.4639 2.7103 43.4639 6.04168V8.47659C43.4639 9.87217 43.9404 11.1589 44.7396 12.1829C41.8472 13.8646 40.0001 16.9762 40.0001 20.3927V20.6711C40.0001 21.3183 40.5257 21.8429 41.174 21.8429C41.8224 21.8429 42.3479 21.3183 42.3479 20.6711V20.3927C42.3479 17.5277 44.0742 14.9468 46.6926 13.8195C47.5361 14.2654 48.4972 14.5182 49.5161 14.5182C50.5351 14.5182 51.4962 14.2654 52.3395 13.8195C54.9573 14.9468 56.6843 17.5296 56.6843 20.3926V31.4961C56.6843 32.3805 55.9635 33.1 55.0775 33.1C54.4582 33.1 53.9454 33.5803 53.906 34.1973L52.5165 55.9646C52.4423 56.8068 51.8671 57.6558 50.9065 57.6558H48.1257C47.1614 57.6558 46.5854 56.8 46.5149 55.9546C46.2846 53.1945 46.0494 49.0783 45.822 45.0976C45.5937 41.1 45.3575 36.9663 45.1245 34.1747C45.0738 33.5673 44.5651 33.1002 43.9547 33.1002C43.0687 33.1002 42.3478 32.3807 42.3478 31.4963V31.218C42.3478 30.5708 41.8223 30.0461 41.1739 30.0461C40.5256 30.0461 40 30.5708 40 31.218V31.4963C40 33.2935 41.2091 34.814 42.858 35.2896C43.065 38.0005 43.2745 41.6699 43.478 45.2312C43.7062 49.227 43.9422 53.3588 44.1751 56.1494C44.3583 58.3444 46.0566 59.9998 48.1256 59.9998H50.9064C52.9754 59.9998 54.6738 58.3445 54.857 56.1494C54.8577 56.1417 54.8581 56.1342 54.8587 56.1266L56.1891 35.2853C57.8301 34.8046 59.0321 33.288 59.0321 31.4963V20.3928C59.0322 16.9785 57.1846 13.8652 54.2927 12.183V12.183ZM49.5161 12.1745C47.4735 12.1745 45.8117 10.5156 45.8117 8.47659V6.04168C45.8117 4.00263 47.4735 2.34374 49.5161 2.34374C51.5587 2.34374 53.2205 4.00263 53.2205 6.04168V8.47659C53.2205 10.5156 51.5587 12.1745 49.5161 12.1745Z" fill="#5A001B"/>
<path d="M41.1743 27.1163C41.8226 27.1163 42.3482 26.5917 42.3482 25.9445C42.3482 25.2972 41.8226 24.7726 41.1743 24.7726H41.1734C40.5251 24.7726 40 25.2972 40 25.9445C40 26.5917 40.5259 27.1163 41.1743 27.1163Z" fill="black"/>
<defs>
<linearGradient id="paint0_linear_0_651" x1="27.1966" y1="-11.9328" x2="-6.80897" y2="19.384" gradientUnits="userSpaceOnUse">
<stop stop-color="#FBFBFB"/>
<stop offset="0.606578" stop-color="#F7F7F7"/>
<stop offset="1" stop-color="#F6F6F6"/>
</linearGradient>
<linearGradient id="paint1_linear_0_651" x1="7.19658" y1="-11.9328" x2="-26.809" y2="19.384" gradientUnits="userSpaceOnUse">
<stop stop-color="#FBFBFB"/>
<stop offset="0.606578" stop-color="#F7F7F7"/>
<stop offset="1" stop-color="#F6F6F6"/>
</linearGradient>
<linearGradient id="paint2_linear_0_651" x1="47.1966" y1="-11.9328" x2="13.191" y2="19.384" gradientUnits="userSpaceOnUse">
<stop stop-color="#FBFBFB"/>
<stop offset="0.606578" stop-color="#F7F7F7"/>
<stop offset="1" stop-color="#F6F6F6"/>
</linearGradient>
</defs>
</svg>
