<svg width="11" height="34" viewBox="0 0 11 34" fill="none" xmlns="http://www.w3.org/2000/svg">
<g id="people">
<path id="Path" d="M2.68066 4.80342C2.68066 5.75489 3.17928 6.59791 3.93348 7.09457C4.38229 7.39014 4.92162 7.56299 5.50023 7.56299C6.07877 7.56299 6.61816 7.39014 7.06697 7.09457C7.8211 6.59791 8.31972 5.75489 8.31972 4.80342V3.42364C8.31972 1.90586 7.05096 0.664062 5.50023 0.664062C3.94949 0.664062 2.68073 1.90586 2.68073 3.42364V4.80342H2.68066Z" fill="#AC3B5C"/>
<path id="Path_2" fill-rule="evenodd" clip-rule="evenodd" d="M3.93345 7.09473C2.04463 7.73488 0.678711 9.4969 0.678711 11.5562V17.8481C0.678711 18.7133 1.4019 19.4211 2.28583 19.4211C2.55369 22.5671 2.82162 28.6171 3.08942 31.7631C3.16283 32.6252 3.81288 33.3361 4.6966 33.3361H6.30379C7.18751 33.3361 7.83756 32.6252 7.91097 31.7631L8.71457 19.4212C9.59849 19.4212 10.3217 18.7133 10.3217 17.8482V11.5562C10.3217 9.49697 8.9557 7.73495 7.06694 7.09486C6.61813 7.39043 6.0788 7.56329 5.5002 7.56329C4.92159 7.56322 4.38226 7.39037 3.93345 7.09473Z" fill="#980A34"/>
<path id="Shape" fill-rule="evenodd" clip-rule="evenodd" d="M8.26064 6.90371C8.72254 6.32339 8.99801 5.59432 8.99801 4.80342V3.42363C8.99794 1.53584 7.42875 0 5.49997 0C3.57118 0 2.00199 1.53584 2.00199 3.42363V4.80342C2.00199 5.59425 2.27739 6.32339 2.7393 6.90365C1.06759 7.85664 6.7848e-05 9.61986 6.7848e-05 11.5559V11.7136C6.7848e-05 12.0804 0.303824 12.3777 0.678548 12.3777C1.05327 12.3777 1.35703 12.0804 1.35703 11.7136V11.5559C1.35703 9.93243 2.35473 8.4699 3.86808 7.83107C4.35557 8.08375 4.91105 8.22699 5.49997 8.22699C6.08889 8.22699 6.64436 8.08375 7.13178 7.83107C8.64479 8.4699 9.6429 9.93349 9.6429 11.5559V17.8478C9.6429 18.349 9.22632 18.7567 8.71427 18.7567C8.3563 18.7567 8.05994 19.0289 8.03714 19.3786L7.23409 31.7134C7.19121 32.1906 6.85876 32.6717 6.30356 32.6717H4.69637C4.139 32.6717 3.80614 32.1868 3.76536 31.7077C3.63225 30.1437 3.49635 27.8111 3.36492 25.5554C3.23296 23.2901 3.09645 20.9477 2.96177 19.3658C2.93246 19.0216 2.63847 18.7569 2.28567 18.7569C1.77362 18.7569 1.35696 18.3491 1.35696 17.848V17.6903C1.35696 17.3235 1.05321 17.0262 0.67848 17.0262C0.303756 17.0262 0 17.3235 0 17.6903V17.848C0 18.8664 0.698835 19.728 1.65183 19.9975C1.77144 21.5337 1.89255 23.613 2.01013 25.6311C2.14203 27.8954 2.27847 30.2368 2.41308 31.8181C2.51893 33.0619 3.50048 34 4.69631 34H6.30349C7.49931 34 8.48094 33.062 8.58678 31.8181C8.58719 31.8138 8.58746 31.8095 8.5878 31.8052L9.35672 19.9951C10.3052 19.7227 10.9999 18.8633 10.9999 17.848V11.556C10.9999 9.62118 9.93207 7.85697 8.26064 6.90371ZM5.49997 6.89893C4.31941 6.89893 3.35895 5.95889 3.35895 4.80342V3.42363C3.35895 2.26817 4.31941 1.32812 5.49997 1.32812C6.68052 1.32812 7.64098 2.26817 7.64098 3.42363V4.80342C7.64098 5.95889 6.68052 6.89893 5.49997 6.89893Z" fill="#5A001B"/>
<path id="Path_3" d="M0.678684 15.3662C1.05341 15.3662 1.35716 15.0689 1.35716 14.7021C1.35716 14.3354 1.05341 14.0381 0.678684 14.0381H0.678209C0.303484 14.0381 0 14.3354 0 14.7021C0 15.0689 0.303959 15.3662 0.678684 15.3662Z" fill="black"/>
</g>
</svg>
