<svg width="24" height="24" viewBox="0 0 24 24" fill="none" xmlns="http://www.w3.org/2000/svg">
<g id="voip">
<path id="Path" d="M19.408 23.416C20.2385 23.3807 21.0254 23.0349 21.6129 22.447L23.1035 20.9567C23.3164 20.7441 23.436 20.4557 23.436 20.1549C23.436 19.8541 23.3164 19.5657 23.1035 19.3531L19.8955 16.1458C19.6828 15.933 19.3943 15.8134 19.0935 15.8134C18.7926 15.8134 18.5041 15.933 18.2915 16.1458C16.3757 18.0611 16.0923 18.6051 15.2534 18.3784C12.9161 17.8195 10.7807 16.6206 9.08676 14.9161C7.37858 13.225 6.18723 11.0827 5.652 8.73958C5.54574 8.34681 5.65823 7.92724 5.94673 7.64026L7.88516 5.70229C8.09802 5.48972 8.21762 5.20126 8.21762 4.90047C8.21762 4.59968 8.09802 4.31122 7.88516 4.09865L4.66578 0.902699C4.45316 0.689888 4.16463 0.570312 3.86377 0.570312C3.56291 0.570312 3.27438 0.689888 3.06176 0.902699L1.5711 2.39301C0.972584 2.97471 0.619669 3.76351 0.58488 4.59731C0.362168 9.65332 2.2737 14.5704 5.85315 18.149C9.43259 21.7276 14.3508 23.6387 19.408 23.416Z" fill="#AC3B5C"/>
<path id="Path_2" fill-rule="evenodd" clip-rule="evenodd" d="M23.1034 20.9395L21.9132 22.1295C21.6517 22.2086 21.3813 22.2543 21.1083 22.2655C16.1934 22.4787 11.4046 20.6761 7.8509 17.2751C4.29715 13.8742 2.28671 9.16977 2.28516 4.25145C2.28516 3.2088 2.28516 2.21715 3.27137 1.25949C4.34828 0.182845 3.67946 -0.0834844 7.87372 4.09278C8.08658 4.30536 8.20619 4.59381 8.20619 4.89461C8.20619 5.1954 8.08658 5.48385 7.87372 5.69643C5.95797 7.61173 5.40818 7.90073 5.64056 8.73371C5.9427 9.97632 6.41777 11.1704 7.05187 12.281C8.73744 15.1982 11.5049 17.3339 14.7546 18.2252C15.361 18.3896 15.8371 18.5766 16.3473 18.0666C19.5496 14.865 18.6144 14.8366 23.0977 19.3359C23.3114 19.5477 23.432 19.8357 23.4331 20.1365C23.4341 20.4373 23.3155 20.7262 23.1034 20.9395Z" fill="#980A34"/>
<path id="Shape" fill-rule="evenodd" clip-rule="evenodd" d="M20.2975 15.7261C19.9785 15.406 19.5451 15.2261 19.0931 15.2261C18.6411 15.2261 18.2077 15.406 17.8886 15.7261C15.8369 17.7774 15.8255 17.9247 15.4004 17.8114C10.407 16.4458 7.41433 13.1081 6.33176 9.09053C6.2014 8.59754 6.06537 8.32554 6.33176 8.04788C8.25319 6.12691 8.76897 5.84358 8.76897 4.90293C8.76897 3.96228 8.27019 3.70162 5.06782 0.499999C4.74877 0.179915 4.31537 0 3.86338 0C3.41139 0 2.978 0.179915 2.65895 0.499999C1.26464 1.88264 0.114057 2.73263 0.0177021 4.57427C-0.209716 9.78798 1.76241 14.8577 5.45343 18.5479C9.14446 22.238 14.2154 24.2097 19.4303 23.9823C21.2667 23.903 22.0886 22.7697 23.4999 21.3587C23.82 21.0397 24 20.6064 24 20.1545C24 19.7026 23.82 19.2694 23.4999 18.9504L20.2975 15.7261ZM22.6894 20.537C21.2837 21.9423 20.7113 22.7753 19.368 22.8037C14.4801 23.014 9.72775 21.1669 6.26561 17.7109C2.80348 14.255 0.94846 9.50664 1.15129 4.6196C1.20796 3.24829 2.08649 2.66463 3.44679 1.30465C3.55515 1.19531 3.70335 1.13475 3.85729 1.13688C4.01124 1.13902 4.15769 1.20368 4.26297 1.31599L7.47101 4.52327C7.69077 4.74429 7.69077 5.10124 7.47101 5.32226L5.53259 7.24889C5.10992 7.68519 4.95219 8.31378 5.11883 8.89787C6.53014 14.1621 9.83453 17.4714 15.1057 18.8824C15.694 19.0432 16.3233 18.8767 16.7551 18.4461L18.7218 16.5308C18.9429 16.311 19.2999 16.311 19.521 16.5308L22.6894 19.738C22.9091 19.9591 22.9091 20.316 22.6894 20.537Z" fill="#5A001B"/>
</g>
</svg>
