<svg width="61" height="60" viewBox="0 0 61 60" fill="none" xmlns="http://www.w3.org/2000/svg">
<g id="photos">
<g id="camera">
<path id="Shape" fill-rule="evenodd" clip-rule="evenodd" d="M55.0321 42.5037C55.2738 42.5037 55.5155 42.4341 55.7255 42.2937L59.4755 39.7961C59.8234 39.5641 60.0321 39.1747 60.0321 38.756V21.2537C60.0321 20.8362 59.8234 20.4456 59.4755 20.2137L55.7255 17.7113C55.3056 17.4305 54.7587 17.4305 54.3388 17.7113L52.5321 18.9168V18.7536C52.5321 18.3361 52.3234 17.9455 51.9755 17.7136L48.2255 15.2112C47.8056 14.9304 47.2587 14.9304 46.8388 15.2112L45.0321 16.4168V16.2537C45.0321 15.8361 44.8234 15.4455 44.4755 15.2136L40.7255 12.7112C40.3056 12.4304 39.7587 12.4304 39.3388 12.7112L37.5322 13.9168V13.7537C37.5322 13.3362 37.3234 12.9456 36.9755 12.7137L33.2255 10.2113C32.8056 9.93047 32.2587 9.93047 31.8388 10.2113L30.0322 11.4168V11.2561C30.0322 10.8386 29.8235 10.448 29.4755 10.2161L25.7255 7.71363C25.3057 7.43285 24.7587 7.43285 24.3389 7.71363L22.5322 8.91926V8.75367C22.5322 8.33613 22.3235 7.94555 21.9755 7.71363L18.2255 5.21121C17.8057 4.93043 17.2588 4.93043 16.8389 5.21121L15.0322 6.41684V3.75C15.0322 3.05906 14.4731 2.49996 13.7822 2.49996H10.0322V1.25004C10.0322 0.559102 9.47318 0 8.78225 0H6.28218C5.59124 0 5.03214 0.559102 5.03214 1.25004V2.50008H1.28215C0.591327 2.49996 0.0322266 3.05906 0.0322266 3.75V53.75V58.7501C0.0322266 59.4409 0.591327 60 1.28226 60H58.7822C59.4731 60 60.0322 59.4409 60.0322 58.75V53.7499C60.0322 53.059 59.4731 52.4999 58.7822 52.4999H52.8283L54.9741 42.486C54.9942 42.487 55.0118 42.5037 55.0321 42.5037ZM50.2718 52.5H25.0321H21.6644L21.9744 52.2937C22.3235 52.063 22.5322 51.6724 22.5322 51.2537V51.0866L24.34 52.2901C24.5487 52.4305 24.7905 52.5001 25.0321 52.5001C25.2738 52.5001 25.5155 52.4305 25.7242 52.2901L29.4742 49.7938C29.8233 49.563 30.0321 49.1725 30.0321 48.7537V48.5866L31.8399 49.7902C32.0486 49.9305 32.2904 50.0002 32.532 50.0002C32.7736 50.0002 33.0154 49.9305 33.2241 49.7902L36.9741 47.2938C37.3232 47.0631 37.5319 46.6725 37.5319 46.2538V46.0905L39.3386 47.2938C39.5486 47.4342 39.7902 47.5038 40.032 47.5038C40.2737 47.5038 40.5154 47.4342 40.7254 47.2938L44.4754 44.7962C44.8233 44.5643 45.032 44.1749 45.032 43.7562V43.5905L46.8387 44.7937C47.0487 44.9341 47.2903 45.0037 47.5321 45.0037C47.7739 45.0037 48.0155 44.9341 48.2255 44.7937L51.9755 42.2961C52.3234 42.0642 52.5321 41.6748 52.5321 41.2561V41.0904L52.6937 41.198L50.2718 52.5Z" fill="#5A001B"/>
<g id="Group">
<path id="Path" fill-rule="evenodd" clip-rule="evenodd" d="M55.0324 20.2539L57.5324 21.9227V38.0871L55.6479 39.3422L56.2542 36.5125C56.3995 35.8375 55.9698 35.1721 55.2947 35.0281C54.6135 34.8767 53.9543 35.3125 53.8103 35.9876L53.257 38.5697L52.5322 38.0869V21.9223L55.0324 20.2539Z" fill="white"/>
<path id="Path_2" fill-rule="evenodd" clip-rule="evenodd" d="M47.5322 17.7539L50.0323 19.4227V40.5872L47.5322 42.2522L45.0322 40.5868V19.4223L47.5322 17.7539Z" fill="white"/>
</g>
<path id="Path_3" fill-rule="evenodd" clip-rule="evenodd" d="M47.5322 17.7539L50.0323 19.4227V40.5872L47.5322 42.2522V17.7539Z" fill="url(#paint0_linear_0_607)"/>
<path id="Path_4" fill-rule="evenodd" clip-rule="evenodd" d="M40.0322 15.2539L42.5323 16.9225V43.0871L40.0322 44.7521L37.5322 43.0868V16.9223L40.0322 15.2539Z" fill="white"/>
<path id="Path_5" fill-rule="evenodd" clip-rule="evenodd" d="M40.0322 15.2539L42.5323 16.9225V43.0871L40.0322 44.7521V15.2539Z" fill="url(#paint1_linear_0_607)"/>
<path id="Path_6" fill-rule="evenodd" clip-rule="evenodd" d="M32.5322 12.7539L35.0323 14.4227V45.5848L32.5322 47.2486L30.0322 45.5849V14.4223L32.5322 12.7539Z" fill="white"/>
<path id="Path_7" fill-rule="evenodd" clip-rule="evenodd" d="M32.5322 12.7539L35.0323 14.4227V45.5848L32.5322 47.2486V12.7539Z" fill="url(#paint2_linear_0_607)"/>
<path id="Path_8" fill-rule="evenodd" clip-rule="evenodd" d="M25.0322 10.2563L27.5323 11.925V48.0847L25.0322 49.7485L22.5322 48.0848V11.9247L25.0322 10.2563Z" fill="white"/>
<path id="Path_9" fill-rule="evenodd" clip-rule="evenodd" d="M25.0322 10.2563L27.5323 11.925V48.0847L25.0322 49.7485V10.2563Z" fill="url(#paint3_linear_0_607)"/>
<path id="Path_10" fill-rule="evenodd" clip-rule="evenodd" d="M17.5322 7.75391L20.0323 9.42254V50.5846L17.5322 52.2485L15.0322 50.5849V9.4223L17.5322 7.75391Z" fill="white"/>
<path id="Path_11" fill-rule="evenodd" clip-rule="evenodd" d="M17.5322 52.2485V7.75391L20.0323 9.4175V50.5801L17.5322 52.2485Z" fill="url(#paint4_linear_0_607)"/>
<rect id="Rectangle" x="2.53223" y="5" width="9.99994" height="47.5" fill="url(#paint5_linear_0_607)"/>
<path id="Path_12" opacity="0.1" d="M10.0322 5V45.0271C10.0322 47.7736 7.80577 50 5.05937 50H2.53223V52.5H12.5322V5H10.0322Z" fill="black"/>
<path id="Path_13" fill-rule="evenodd" clip-rule="evenodd" d="M57.5322 57.5001H2.53223V55H13.7822H57.5322V57.5001Z" fill="url(#paint6_linear_0_607)"/>
<ellipse id="Oval" cx="7.53218" cy="9.99996" rx="2.49996" ry="2.49996" fill="white"/>
<path id="Path_14" fill-rule="evenodd" clip-rule="evenodd" d="M55.2945 35.0281C55.9695 35.1721 56.3992 35.8374 56.254 36.5125L55.6477 39.3422L57.5322 38.0871V21.9227L55.0322 20.2539V35.0234C55.1198 35.0236 55.205 35.0083 55.2945 35.0281Z" fill="url(#paint7_linear_0_607)"/>
</g>
</g>
<defs>
<linearGradient id="paint0_linear_0_607" x1="48.4347" y1="4.8179" x2="39.6175" y2="7.11787" gradientUnits="userSpaceOnUse">
<stop stop-color="#FBFBFB"/>
<stop offset="0.606578" stop-color="#F7F7F7"/>
<stop offset="1" stop-color="#F6F6F6"/>
</linearGradient>
<linearGradient id="paint1_linear_0_607" x1="40.9347" y1="-0.322249" x2="31.9397" y2="1.6264" gradientUnits="userSpaceOnUse">
<stop stop-color="#FBFBFB"/>
<stop offset="0.606578" stop-color="#F7F7F7"/>
<stop offset="1" stop-color="#F6F6F6"/>
</linearGradient>
<linearGradient id="paint2_linear_0_607" x1="33.4347" y1="-5.4606" x2="24.33" y2="-3.7739" gradientUnits="userSpaceOnUse">
<stop stop-color="#FBFBFB"/>
<stop offset="0.606578" stop-color="#F7F7F7"/>
<stop offset="1" stop-color="#F6F6F6"/>
</linearGradient>
<linearGradient id="paint3_linear_0_607" x1="25.9347" y1="-10.597" x2="16.7578" y2="-9.11206" gradientUnits="userSpaceOnUse">
<stop stop-color="#FBFBFB"/>
<stop offset="0.606578" stop-color="#F7F7F7"/>
<stop offset="1" stop-color="#F6F6F6"/>
</linearGradient>
<linearGradient id="paint4_linear_0_607" x1="18.4347" y1="-15.7409" x2="9.20786" y2="-14.4157" gradientUnits="userSpaceOnUse">
<stop stop-color="#FBFBFB"/>
<stop offset="0.606578" stop-color="#F7F7F7"/>
<stop offset="1" stop-color="#F6F6F6"/>
</linearGradient>
<linearGradient id="paint5_linear_0_607" x1="6.14202" y1="-20.0818" x2="-23.0672" y2="-4.36374" gradientUnits="userSpaceOnUse">
<stop stop-color="#FBFBFB"/>
<stop offset="0.606578" stop-color="#F7F7F7"/>
<stop offset="1" stop-color="#F6F6F6"/>
</linearGradient>
<linearGradient id="paint6_linear_0_607" x1="22.3862" y1="53.6799" x2="22.3207" y2="57.3629" gradientUnits="userSpaceOnUse">
<stop stop-color="#FBFBFB"/>
<stop offset="0.606578" stop-color="#F7F7F7"/>
<stop offset="1" stop-color="#F6F6F6"/>
</linearGradient>
<linearGradient id="paint7_linear_0_607" x1="55.9347" y1="10.1746" x2="47.4669" y2="13.0093" gradientUnits="userSpaceOnUse">
<stop stop-color="#FBFBFB"/>
<stop offset="0.606578" stop-color="#F7F7F7"/>
<stop offset="1" stop-color="#F6F6F6"/>
</linearGradient>
</defs>
</svg>
