<svg width="55" height="60" viewBox="0 0 55 60" fill="none" xmlns="http://www.w3.org/2000/svg">
<g id="prepay-click">
<path id="Path" fill-rule="evenodd" clip-rule="evenodd" d="M28.7499 50H26.25C25.559 50 24.9999 49.4409 24.9999 48.75C24.9999 48.0603 24.4384 47.4999 23.7499 47.4999C23.0614 47.4999 22.4999 48.0602 22.4999 48.75C22.4999 49.4409 21.9408 50 21.2498 50H18.7499C18.0589 50 17.4998 49.4409 17.4998 48.75C17.4998 48.0603 16.9383 47.4999 16.2498 47.4999C15.5613 47.4999 14.9998 48.0602 14.9998 48.75C14.9998 49.4409 14.4407 50 13.7497 50H11.2498C10.5588 50 9.99972 49.4409 9.99972 48.75C9.99972 48.0603 9.43816 47.4999 8.74968 47.4999C8.0612 47.4999 7.49999 48.0603 7.49999 48.75C7.49999 49.4409 6.94089 50 6.24996 50H5.00003C2.24367 50 0 47.7576 0 45V5.00003C0 2.24238 2.24367 0 5.00003 0H6.25007C6.94101 0 7.50011 0.559101 7.50011 1.25004C7.50011 1.93969 8.06167 2.50008 8.75015 2.50008C9.43862 2.50008 10.0002 1.9398 10.0002 1.25004C9.99995 0.559101 10.5591 0 11.25 0H13.7499C14.4409 0 15 0.559101 15 1.25004C15 1.93969 15.5615 2.50008 16.25 2.50008C16.9385 2.50008 17.5001 1.9398 17.5001 1.25004C17.4999 0.559101 18.059 0 18.75 0H21.2499C21.9409 0 22.5 0.559101 22.5 1.25004C22.5 1.93969 23.0615 2.50008 23.75 2.50008C24.4385 2.50008 25.0001 1.9398 25.0001 1.25004C24.9999 0.559101 25.559 0 26.25 0H28.7499C29.4409 0 30 0.559101 30 1.25004C30 1.93969 30.5615 2.50008 31.25 2.50008C31.9385 2.50008 32.5 1.9398 32.5 1.25004C32.4999 0.559101 33.059 0 33.75 0H35C37.7564 0 40 2.24238 40 5.00003V35.2502C40 35.5175 39.9146 35.7787 39.7535 35.9948L29.7535 49.4946C29.519 49.812 29.1454 50 28.7499 50Z" fill="#5A001B"/>
<path id="Path_2" fill-rule="evenodd" clip-rule="evenodd" d="M27.285 47.5H28.12L37.4999 34.8376V5.00008C37.4999 3.62195 36.3792 2.50012 34.9999 2.50012H34.7851C34.27 3.95512 32.8807 5.00008 31.2499 5.00008C29.619 5.00008 28.2299 3.95512 27.7147 2.50012H27.285C26.77 3.95512 25.3807 5.00008 23.7499 5.00008C22.119 5.00008 20.7299 3.95512 20.2148 2.50012H19.785C19.27 3.95512 17.8807 5.00008 16.2499 5.00008C14.6191 5.00008 13.2299 3.95512 12.7148 2.50012H12.285C11.77 3.95512 10.3807 5.00008 8.74996 5.00008C7.11918 5.00008 5.72992 3.95512 5.21476 2.5H4.99996C3.62055 2.5 2.5 3.62183 2.5 4.99996V45C2.5 46.3781 3.62066 47.5 4.99996 47.5H5.21476C5.72992 46.045 7.11906 45 8.74996 45C10.3809 45 11.77 46.045 12.2851 47.5H12.7149C13.2299 46.045 14.6191 45 16.2499 45C17.8808 45 19.27 46.045 19.7851 47.5H20.2149C20.7299 46.045 22.119 45 23.7499 45C25.3807 45 26.77 46.045 27.285 47.5Z" fill="#980A34"/>
<path id="Path_3" fill-rule="evenodd" clip-rule="evenodd" d="M40.4859 59.9988C40.0415 59.9988 39.6094 59.7595 39.3848 59.3408L36.0718 53.1775L29.6362 59.6313C29.2773 59.9915 28.7427 60.0989 28.2714 59.9036C27.8052 59.7107 27.5 59.2541 27.5 58.7488V26.2489C27.5 25.7558 27.7905 25.3078 28.2421 25.1075C28.6913 24.9073 29.2187 24.9891 29.5873 25.3199L54.5873 47.8199C54.9706 48.1666 55.1024 48.7135 54.9169 49.1969C54.7314 49.6803 54.2675 49.9989 53.75 49.9989H44.5801L47.4487 55.2052C47.6123 55.5031 47.6465 55.8546 47.5463 56.1794C47.4462 56.5041 47.2167 56.7739 46.9115 56.9253L41.0448 59.866C40.8667 59.9562 40.6763 59.9988 40.4859 59.9988Z" fill="#5A001B"/>
<path id="Path_4" fill-rule="evenodd" clip-rule="evenodd" d="M36.377 49.8524C36.438 49.8524 36.4966 49.8573 36.5577 49.8659C36.9507 49.9233 37.2901 50.1625 37.4781 50.5104L41.0108 57.0876L44.6314 55.2736L41.3698 49.352C41.1573 48.9651 41.1647 48.4939 41.3893 48.113C41.614 47.7322 42.0241 47.499 42.466 47.499H50.4934L30 29.0553V55.7252L35.4932 50.2198C35.7275 49.983 36.0475 49.8524 36.377 49.8524Z" fill="#980A34"/>
<path id="Path_5" d="M42.9453 53.313C41.868 53.8527 40.5571 53.4373 39.9869 52.376L37.4781 47.7051C37.2901 47.3572 36.9507 47.118 36.5577 47.0606C36.4966 47.052 36.438 47.0471 36.377 47.0471C36.0473 47.0471 35.7275 47.1778 35.4932 47.4145L30 52.9198V55.7252L35.4932 50.2199C35.7275 49.983 36.0473 49.8525 36.377 49.8525C36.438 49.8525 36.4966 49.8574 36.5577 49.8659C36.9507 49.9234 37.2901 50.1625 37.4781 50.5105L41.0108 57.0876L44.6314 55.2737L43.4203 53.075L42.9453 53.313Z" fill="#AC3B5C"/>
<g id="Group">
<path id="Path_6" fill-rule="evenodd" clip-rule="evenodd" d="M11.25 20H8.75004C8.0591 20 7.5 20.5591 7.5 21.25C7.5 21.9408 8.0591 22.4999 8.75004 22.4999H10.0001C10.0001 23.1909 10.5592 23.75 11.2501 23.75C11.9411 23.75 12.5002 23.1909 12.5002 22.4999V22.2697C13.952 21.7519 15.0001 20.3774 15.0001 18.7499C15.0001 16.6821 13.318 14.9999 11.2501 14.9999C10.5616 14.9999 10.0001 14.4397 10.0001 13.7499C10.0001 13.0601 10.5616 12.4999 11.2501 12.4999H13.7501C14.441 12.4999 15.0001 11.9408 15.0001 11.2498C15.0001 10.5589 14.441 9.99979 13.7501 9.99979H12.5C12.5 9.30886 11.9409 8.74976 11.25 8.74976C10.5591 8.74976 9.99996 9.30886 9.99996 9.99979V10.2301C8.54812 10.7478 7.5 12.1223 7.5 13.7498C7.5 15.8177 9.18211 17.4998 11.25 17.4998C11.9385 17.4998 12.5 18.0601 12.5 18.7498C12.5 19.4396 11.9385 20 11.25 20Z" fill="#5A001B"/>
<path id="Path_7" d="M31.25 9.99988H21.25C20.5591 9.99988 20 10.559 20 11.2499C20 11.9409 20.5591 12.5 21.25 12.5H31.25C31.9409 12.5 32.5 11.9409 32.5 11.2499C32.4999 10.559 31.9409 9.99988 31.25 9.99988Z" fill="#AC3B5C"/>
<path id="Path_8" d="M31.25 17.4999H21.25C20.5591 17.4999 20 18.059 20 18.7499C20 19.4409 20.5591 20 21.25 20H31.25C31.9409 20 32.5 19.4409 32.5 18.7499C32.4999 18.059 31.9409 17.4999 31.25 17.4999Z" fill="#AC3B5C"/>
<path id="Path_9" d="M21.2499 27.5H8.75004C8.0591 27.5 7.5 28.0591 7.5 28.75C7.5 29.4409 8.0591 30 8.75004 30H21.2501C21.941 30 22.5001 29.4409 22.5001 28.7499C22.5 28.0591 21.9409 27.5 21.2499 27.5Z" fill="#AC3B5C"/>
<path id="Path_10" d="M13.75 35H8.75004C8.0591 35 7.5 35.5591 7.5 36.25C7.5 36.941 8.0591 37.5 8.75004 37.5H13.7501C14.441 37.5 15.0001 36.9409 15.0001 36.2499C15.0001 35.559 14.4409 35 13.75 35Z" fill="#AC3B5C"/>
</g>
</g>
</svg>
