<svg width="54" height="50" viewBox="0 0 54 50" fill="none" xmlns="http://www.w3.org/2000/svg">
<g id="question-mark">
<path id="Path" fill-rule="evenodd" clip-rule="evenodd" d="M45.0057 1.7998H8.99441C5.02803 1.80901 1.81494 4.99677 1.80566 8.9319V33.9444C1.81494 37.8796 5.02803 41.0673 8.99441 41.0765H16.6219C19.1916 41.0726 21.567 42.433 22.8488 44.6426L23.895 46.434C24.3716 47.2533 25.1567 47.8512 26.0777 48.0961C26.9987 48.341 27.98 48.2129 28.8057 47.7398C29.35 47.4237 29.8033 46.974 30.1219 46.434L31.1682 44.6426C32.45 42.433 34.8254 41.0726 37.395 41.0765H45.0057C48.9852 41.0765 52.2113 37.8759 52.2113 33.9277V8.9319C52.202 4.99024 48.9786 1.79979 45.0057 1.7998V1.7998Z" fill="#980A34"/>
<path id="Path_2" d="M28.8058 47.74C27.9801 48.213 26.9988 48.3412 26.0778 48.0963C25.1569 47.8514 24.3717 47.2534 23.8952 46.4341L22.8489 44.6427C21.5671 42.4331 19.1917 41.0728 16.6221 41.0767H20.2502C22.8199 41.0728 25.1953 42.4331 26.4771 44.6427L27.5233 46.4341C27.8326 46.97 28.2738 47.4193 28.8058 47.74V47.74Z" fill="#AC3B5C"/>
<path id="Path_3" d="M12.6059 41.0765H8.99469C5.01513 41.0765 1.78906 37.8759 1.78906 33.9277V8.9319C1.79837 4.99024 5.02171 1.79979 8.99469 1.7998H12.6059C8.63296 1.79979 5.40962 4.99024 5.40031 8.9319V33.9444C5.40962 37.8861 8.63296 41.0765 12.6059 41.0765V41.0765Z" fill="#AC3B5C"/>
<g id="Group">
<path id="Path_4" fill-rule="evenodd" clip-rule="evenodd" d="M8.99438 39.3019C6.01204 39.3019 3.59437 36.9033 3.59437 33.9444V8.93188C3.59437 5.97305 6.01204 3.57444 8.99438 3.57444H37.8C38.4837 3.64025 39.1457 3.31552 39.5082 2.73666C39.8706 2.15779 39.8706 1.42505 39.5082 0.846186C39.1457 0.267322 38.4837 -0.0574025 37.8 0.00839873H8.99438C4.03077 0.017612 0.00928647 4.0074 0 8.93188V33.9444C0.00928647 38.8689 4.03077 42.8587 8.99438 42.8679C9.67803 42.9337 10.3401 42.609 10.7025 42.0301C11.065 41.4513 11.065 40.7185 10.7025 40.1397C10.3401 39.5608 9.67803 39.2361 8.99438 39.3019Z" fill="#5A001B"/>
<path id="Path_5" fill-rule="evenodd" clip-rule="evenodd" d="M45.0053 0.00839873C44.3217 -0.0574025 43.6596 0.267322 43.2972 0.846186C42.9347 1.42505 42.9347 2.15779 43.2972 2.73666C43.6596 3.31552 44.3217 3.64025 45.0053 3.57444C47.9877 3.57444 50.4053 5.97305 50.4053 8.93188V33.9444C50.4053 36.9033 47.9877 39.3019 45.0053 39.3019H37.3778C34.1698 39.3037 31.2055 41.0006 29.5985 43.7552C28.991 44.7765 28.4172 46.4172 26.9997 46.434C25.5822 46.4507 24.9916 44.7598 24.401 43.772C22.7952 41.0057 19.8223 39.3011 16.6047 39.3019H16.1997C15.5161 39.2361 14.854 39.5608 14.4915 40.1397C14.1291 40.7185 14.1291 41.4513 14.4915 42.0301C14.854 42.609 15.5161 42.9337 16.1997 42.8679H16.6216C18.551 42.8652 20.3343 43.8872 21.296 45.5466L22.3422 47.3548C23.3217 48.9838 25.0878 49.9868 26.9997 50C28.9187 49.9967 30.6917 48.9834 31.6572 47.338L32.7035 45.5466C33.6651 43.8872 35.4484 42.8652 37.3778 42.8679H44.9885C49.9586 42.8679 53.9904 38.8754 53.9997 33.9444V8.93188C53.9904 4.0074 49.9689 0.017612 45.0053 0.00839873V0.00839873Z" fill="#5A001B"/>
<path id="Path_6" d="M34.4421 18.8598V16.0806C34.4421 13.1218 32.0244 10.7231 29.0421 10.7231H27.2027C24.2204 10.7231 21.8027 13.1218 21.8027 16.0806C21.8027 16.5586 21.9953 17.0168 22.3375 17.3532C22.6798 17.6897 23.1434 17.8764 23.6252 17.872C24.6225 17.872 25.4309 17.0699 25.4309 16.0806C25.4307 15.1042 26.2187 14.3074 27.2027 14.2892H29.0252C29.5041 14.2892 29.9634 14.4779 30.302 14.8139C30.6406 15.1498 30.8309 15.6055 30.8309 16.0806V18.8598C30.8309 19.3378 30.6383 19.796 30.2961 20.1324C29.9538 20.4689 29.4902 20.6556 29.0084 20.6511C27.0271 20.6603 25.4232 22.2515 25.414 24.2172V26.8122C25.3477 27.4905 25.675 28.1473 26.2584 28.5069C26.8419 28.8665 27.5805 28.8665 28.1639 28.5069C28.7474 28.1473 29.0747 27.4905 29.0084 26.8122V24.2172C30.4464 24.2261 31.8286 23.6656 32.8486 22.6599C33.8686 21.6542 34.4421 20.2865 34.4421 18.8598V18.8598Z" fill="white"/>
<path id="Path_7" d="M27.2197 30.3618C26.2225 30.3618 25.4141 31.1639 25.4141 32.1532C25.4141 33.1426 26.2225 33.9446 27.2197 33.9446C28.2169 33.9446 29.0253 33.1426 29.0253 32.1532C29.0253 31.1639 28.2169 30.3618 27.2197 30.3618V30.3618Z" fill="white"/>
</g>
</g>
</svg>
