<svg width="30" height="30" viewBox="0 0 30 30" fill="none" xmlns="http://www.w3.org/2000/svg">
<g id="social-instagram-shadow">
<g id="Shape" filter="url(#filter0_i_0_2615)">
<path fill-rule="evenodd" clip-rule="evenodd" d="M22.5 0L7.5 0C3.37537 0 0 3.3739 0 7.5L0 22.5C0 26.6246 3.37537 30 7.5 30L22.5 30C26.6246 30 30 26.6246 30 22.5L30 7.5C30 3.3739 26.6246 0 22.5 0ZM15 21.2498C11.5477 21.2498 8.74988 18.4507 8.74988 15C8.74988 11.5477 11.5477 8.74988 15 8.74988C18.4507 8.74988 21.2501 11.5477 21.2501 15C21.2501 18.4507 18.4507 21.2498 15 21.2498ZM23.1251 8.74988C22.0886 8.74988 21.2501 7.91023 21.2501 6.87488C21.2501 5.83953 22.0886 4.99988 23.1251 4.99988C24.1616 4.99988 25.0001 5.83953 25.0001 6.87488C25.0001 7.91023 24.1616 8.74988 23.1251 8.74988Z" fill="#89052C"/>
</g>
</g>
<defs>
<filter id="filter0_i_0_2615" x="0" y="0" width="30" height="30" filterUnits="userSpaceOnUse" color-interpolation-filters="sRGB">
<feFlood flood-opacity="0" result="BackgroundImageFix"/>
<feBlend mode="normal" in="SourceGraphic" in2="BackgroundImageFix" result="shape"/>
<feColorMatrix in="SourceAlpha" type="matrix" values="0 0 0 0 0 0 0 0 0 0 0 0 0 0 0 0 0 0 127 0" result="hardAlpha"/>
<feOffset dy="-3"/>
<feComposite in2="hardAlpha" operator="arithmetic" k2="-1" k3="1"/>
<feColorMatrix type="matrix" values="0 0 0 0 0.427451 0 0 0 0 0.00392157 0 0 0 0 0.12549 0 0 0 1 0"/>
<feBlend mode="normal" in2="shape" result="effect1_innerShadow_0_2615"/>
</filter>
</defs>
</svg>
