<svg width="72" height="60" viewBox="0 0 72 60" fill="none" xmlns="http://www.w3.org/2000/svg">
<g id="warehouse">
<path id="Path" fill-rule="evenodd" clip-rule="evenodd" d="M71.1935 18.1693L36.6942 0.169173C36.2577 -0.0563911 35.7421 -0.0563911 35.3056 0.169173L0.806277 18.1693C0.194007 18.4887 -0.120987 19.1859 0.0431195 19.8568C0.208632 20.5278 0.80923 20.9994 1.50067 20.9994H3.00069V58.4998C3.00069 59.3289 3.6716 59.9999 4.5007 59.9999H67.4995C68.3286 59.9999 68.9995 59.3289 68.9995 58.4998V20.9994H70.4995C71.191 20.9994 71.7916 20.5278 71.9571 19.8568C72.1208 19.1859 71.8058 18.4887 71.1935 18.1693Z" fill="#5A001B"/>
<rect id="Rectangle" x="15.0005" y="23.9999" width="41.9992" height="33.0003" fill="#AC3B5C"/>
<path id="Path_2" fill-rule="evenodd" clip-rule="evenodd" d="M65.9994 19.4994V56.9998H61.4995H59.9995V22.4995C59.9995 21.6704 59.3286 20.9995 58.4995 20.9995H13.5004C12.6712 20.9995 12.0003 21.6704 12.0003 22.4995V56.9998H6.00054V19.4994C6.00054 19.2885 5.95653 19.0892 5.87891 18.9077L35.9999 3.19128L66.1209 18.9077C66.0433 19.0894 65.9994 19.2885 65.9994 19.4994Z" fill="#980A34"/>
<path id="Path_3" fill-rule="evenodd" clip-rule="evenodd" d="M56.9997 56.9997V23.9994H15.0005L47.9999 56.9997H56.9997Z" fill="#980A34"/>
<path id="Path_4" fill-rule="evenodd" clip-rule="evenodd" d="M52.4994 38.9996H34.4998C33.6707 38.9996 32.9998 39.6706 32.9998 40.4997V41.9998H19.5C18.6709 41.9998 18 42.6707 18 43.4998V58.5C18 59.3291 18.6709 60 19.5 60H52.4994C53.3285 60 53.9994 59.3291 53.9994 58.5V40.4998C53.9993 39.6706 53.3285 38.9996 52.4994 38.9996Z" fill="#5A001B"/>
<path id="Path_5" d="M21 44.9996H25.4999V47.9996C25.4999 48.8287 26.1708 49.4997 26.9999 49.4997C27.829 49.4997 28.4999 48.8287 28.4999 47.9996V44.9996H32.9999V56.9997H21.0001V44.9996H21Z" fill="#AC3B5C"/>
<path id="Path_6" d="M50.9998 56.9997H36V43.4996V41.9995H41.9999V46.4996C41.9999 47.3287 42.6708 47.9996 43.4999 47.9996C44.3291 47.9996 45 47.3287 45 46.4996V41.9995H50.9999V56.9997H50.9998Z" fill="white"/>
</g>
</svg>
