<svg width="30" height="24" viewBox="0 0 30 24" fill="none" xmlns="http://www.w3.org/2000/svg">
<g id="camera">
<path id="Shape" fill-rule="evenodd" clip-rule="evenodd" d="M26.413 4.17391H23.2826L21.5543 1.56522C20.9022 0.586957 19.7609 0 18.587 0H11.413C10.2391 0 9.09783 0.586957 8.44565 1.56522L6.71739 4.17391H3.58696C1.59783 4.17391 0 5.77174 0 7.76087V20.413C0 22.4022 1.59783 24 3.58696 24H26.413C28.4022 24 30 22.4022 30 20.413V7.76087C30 5.77174 28.4022 4.17391 26.413 4.17391ZM15 21.0652C10.5326 21.0652 6.91304 17.4457 6.91304 12.9783C6.91304 8.51087 10.5326 4.92391 15 4.92391C19.4674 4.92391 23.087 8.54348 23.087 13.0109C23.087 17.4457 19.4674 21.0652 15 21.0652ZM25.8261 9.22826H25.9565C26.5435 9.19565 26.9674 8.70652 26.9348 8.11957C26.9022 7.53261 26.413 7.07609 25.8261 7.1087H24.5217C23.9674 7.1413 23.5435 7.56522 23.5109 8.11957C23.4783 8.70652 23.9348 9.19565 24.5217 9.22826H25.8261Z" fill="white"/>
<path id="Path" d="M15 8.51099C12.5217 8.51099 10.5 10.5327 10.5 13.011C10.5 15.4892 12.5217 17.4784 15 17.4784C17.4783 17.4784 19.5 15.4566 19.5 12.9784C19.5 10.5001 17.4783 8.51099 15 8.51099Z" fill="white"/>
</g>
</svg>
