<svg width="30" height="27" viewBox="0 0 30 27" fill="none" xmlns="http://www.w3.org/2000/svg">
<g id="filter">
<path id="Shape" fill-rule="evenodd" clip-rule="evenodd" d="M10.9531 2.46943H28.8264C29.4746 2.46943 30 2.98556 30 3.62219C30 4.25882 29.4746 4.77495 28.8265 4.77495H10.9532C10.4618 6.20859 9.08136 7.24438 7.45832 7.24438C5.83529 7.24438 4.45486 6.20859 3.96347 4.77495H1.1735C0.525417 4.77495 0 4.25882 0 3.62219C0 2.98556 0.525417 2.46943 1.1735 2.46943H3.96339C4.45478 1.03579 5.83521 0 7.45824 0C9.08128 0 10.4617 1.03579 10.9531 2.46943ZM6.11787 3.62219C6.11787 4.3482 6.71917 4.93887 7.45824 4.93887C8.19732 4.93887 8.79862 4.3482 8.79862 3.62219C8.79862 2.89618 8.19732 2.30551 7.45824 2.30551C6.71917 2.30551 6.11787 2.89618 6.11787 3.62219Z" fill="#89052C"/>
<path id="Shape_2" fill-rule="evenodd" clip-rule="evenodd" d="M26.0365 12.3474H28.8264C29.4746 12.3474 30 12.8635 30 13.5001C30 14.1367 29.4746 14.6529 28.8265 14.6529H26.0365C25.5451 16.0865 24.1646 17.1223 22.5417 17.1223C20.9187 17.1223 19.5382 16.0865 19.0468 14.6529H1.1735C0.525417 14.6529 0 14.1367 0 13.5001C0 12.8635 0.525417 12.3474 1.1735 12.3474H19.0468C19.5382 10.9137 20.9186 9.87793 22.5416 9.87793C24.1646 9.87793 25.5451 10.9137 26.0365 12.3474ZM21.2013 13.5001C21.2013 14.2261 21.8026 14.8168 22.5417 14.8168C23.2808 14.8168 23.8821 14.2261 23.8821 13.5001C23.8821 12.7741 23.2808 12.1834 22.5417 12.1834C21.8026 12.1834 21.2013 12.7741 21.2013 13.5001Z" fill="#89052C"/>
<path id="Shape_3" fill-rule="evenodd" clip-rule="evenodd" d="M15.9809 22.225H28.8264C29.4746 22.225 30 22.7412 30 23.3778C30 24.0144 29.4746 24.5306 28.8265 24.5306H15.9809C15.4895 25.9642 14.1091 27 12.4861 27C10.863 27 9.48262 25.9642 8.99123 24.5306H1.1735C0.525417 24.5306 0 24.0144 0 23.3778C0 22.7412 0.525417 22.225 1.1735 22.225H8.99123C9.48262 20.7914 10.863 19.7556 12.4861 19.7556C14.1091 19.7556 15.4895 20.7914 15.9809 22.225ZM11.1457 23.3779C11.1457 24.1039 11.747 24.6946 12.4861 24.6946C13.2252 24.6946 13.8265 24.1038 13.8265 23.3778C13.8265 22.6518 13.2252 22.0612 12.4861 22.0612C11.747 22.0612 11.1457 22.6519 11.1457 23.3779Z" fill="#89052C"/>
</g>
</svg>
