<svg width="30" height="30" viewBox="0 0 30 30" fill="none" xmlns="http://www.w3.org/2000/svg">
<g id="refresh">
<path id="Path" d="M10.7279 0.625222C7.35012 1.62849 4.43369 3.78804 2.49 6.72521C2.22306 7.20648 2.05638 7.73672 2 8.28407V3.01791H0V11.0121H8V9.01354H3.48C5.71925 4.70887 10.1454 1.98292 15 1.91872C20.7572 1.9856 25.8035 5.78177 27.46 11.2919L29.38 10.7223C27.0196 2.78714 18.6688 -1.73343 10.7279 0.625222Z" fill="#89052C"/>
<path id="Path_2" d="M22 19.0062V21.0048H26.52C24.2807 25.3095 19.8546 28.0354 15 28.0996C9.24281 28.0327 4.1965 24.2365 2.54 18.7264L0.619995 19.296C2.9905 27.2281 11.3471 31.7381 19.285 29.3693C22.7617 28.3318 25.7443 26.0701 27.68 23.0033C27.8874 22.6122 27.9972 22.1769 28 21.7342V27.0004H30V19.0062H22Z" fill="#89052C"/>
</g>
</svg>
