<svg width="22" height="25" viewBox="0 0 22 25" fill="none" xmlns="http://www.w3.org/2000/svg">
<g opacity="0.2">
<path fill-rule="evenodd" clip-rule="evenodd" d="M13.4444 0H8.55556C3.85 0 0 3.93586 0 8.74636V12.4948C0 15.8684 1.925 18.9608 4.88889 20.3978V24.5835C4.88889 24.9584 5.34722 25.1458 5.59167 24.8646L9.13611 21.2411H13.4444C18.15 21.2411 22 17.3053 22 12.4948V8.74636C22 3.93586 18.15 0 13.4444 0ZM16.6528 16.3994L15.4 17.6489C14.0861 18.9608 10.6944 17.4615 7.7 14.3378C4.70556 11.2141 3.39167 7.71554 4.64444 6.40358L5.86667 5.1541C6.325 4.68555 7.08889 4.71678 7.60833 5.18534L9.38056 7.05956C10.0222 7.71554 9.74722 8.84007 8.92222 9.08996C8.34167 9.27738 7.94444 9.93336 8.12778 10.5269C8.43333 11.9013 10.1444 13.6506 11.4278 13.9942C12.0083 14.1191 12.65 13.8067 12.8639 13.2132C13.1389 12.3698 14.2389 12.12 14.85 12.7759L16.6222 14.6501C17.1111 15.0875 17.1111 15.8684 16.6528 16.3994ZM11.7333 5.96626C11.8556 5.93503 11.9778 5.93503 12.1 5.93503C13.9028 5.93503 15.3694 7.4344 15.3389 9.24615C15.3389 9.30862 15.3312 9.3711 15.3236 9.43357C15.316 9.49604 15.3083 9.55852 15.3083 9.62099C15.2778 9.83965 15.4611 10.0583 15.675 10.0895C15.8889 10.1208 16.1028 9.93336 16.1333 9.7147C16.1639 9.55852 16.1639 9.40233 16.1639 9.24615C16.1639 6.96585 14.3306 5.09163 12.1 5.09163C11.9472 5.09163 11.7944 5.09163 11.6417 5.12287C11.4278 5.1541 11.2444 5.37276 11.275 5.59142C11.3056 5.81008 11.5194 5.9975 11.7333 5.96626ZM14.5444 9.27738C14.5444 9.49604 14.3611 9.68347 14.1472 9.68347C13.9333 9.68347 13.75 9.49604 13.75 9.27738C13.75 8.37151 13.0167 7.62182 12.1306 7.62182C11.9167 7.62182 11.7333 7.4344 11.7333 7.21574C11.7333 6.99708 11.9167 6.80966 12.1306 6.80966C13.4444 6.77843 14.5444 7.90296 14.5444 9.27738ZM17.1417 10.9329C17.3861 10.9954 17.6 10.8392 17.6611 10.6206C17.7528 10.1833 17.8139 9.7147 17.8139 9.27738C17.8139 6.05998 15.2472 3.43607 12.1 3.43607C12.0423 3.43607 11.9778 3.44303 11.9097 3.45038C11.8335 3.4586 11.7529 3.46731 11.6722 3.46731C11.4583 3.46731 11.3056 3.68596 11.3056 3.90462C11.3056 4.12328 11.5194 4.27947 11.7333 4.27947H12.1C14.7889 4.27947 16.9889 6.52853 16.9889 9.27738C16.9889 9.68347 16.9583 10.0583 16.8667 10.4332C16.8056 10.6518 16.9278 10.8705 17.1417 10.9329Z" fill="black"/>
</g>
</svg>
