<svg width="20" height="14" viewBox="0 0 20 14" fill="none" xmlns="http://www.w3.org/2000/svg">
<g opacity="0.2">
<path fill-rule="evenodd" clip-rule="evenodd" d="M19.5825 2.16177L19.5575 2.00036C19.8483 3.56095 20 5.17012 20 6.81471C20 6.88141 20 6.94812 19.9992 7.00412C20 7.06506 20 7.126 20 7.18612C20 8.82988 19.8483 10.4391 19.5833 11.8374L19.5792 11.8547C19.3417 12.6848 18.6884 13.3387 17.8425 13.5808C16.2667 14 10.0093 14 10.0093 14C10.0093 14 3.73353 14 2.17605 13.5808L2.15855 13.5767C1.3294 13.3387 0.676904 12.6848 0.43524 11.8374L0.461073 12.0005C-0.15142 8.78129 -0.147253 5.16847 0.43524 2.16177L0.439406 2.14448C0.676904 1.31436 1.33023 0.660481 2.17522 0.418364C3.7502 -0.00822392 10.0085 1.13809e-05 10.0085 1.13809e-05C10.0085 1.13809e-05 16.2825 1.13548e-05 17.8417 0.418364L17.8592 0.422481C18.6884 0.660481 19.3408 1.31436 19.5825 2.16177ZM8.00681 4.00071V10.0067L13.2284 7.00824L8.00681 4.00071Z" fill="black"/>
</g>
</svg>
